<svg xmlns:xlink="http://www.w3.org/1999/xlink" xmlns="http://www.w3.org/2000/svg" width="40" height="40" fill="none" viewBox="0 0 40 40"><g filter="url(#audioNormal_svg__a)" fill="none"><rect width="24" height="24" x="8" y="8" fill="#C2C4C8" class="audioNormal_svg__main" rx="7"></rect><rect width="24" height="24" x="8" y="8" fill="url(&quot;#audioNormal_svg__b&quot;)" fill-opacity="0.2" rx="7"></rect></g><g filter="url(#audioNormal_svg__c)" fill="none"><path fill="#FFFFFF" fill-rule="evenodd" d="M21 24.496v-7.614a1 1 0 0 1 .876-.992l2.248-.281a1 1 0 0 0 .876-.992v-1.528a1 1 0 0 0-1.085-.997l-2.912.248a2 2 0 0 0-1.83 2.057l.24 7.456a3 3 0 1 0 1.586 2.724H21z" clip-rule="evenodd"></path></g><defs><filter id="audioNormal_svg__a" width="24" height="24" x="8" y="8" color-interpolation-filters="sRGB" filterUnits="userSpaceOnUse"><feFlood flood-opacity="0" result="BackgroundImageFix"></feFlood><feBlend in="SourceGraphic" in2="BackgroundImageFix" result="shape"></feBlend><feColorMatrix in="SourceAlpha" result="hardAlpha" values="0 0 0 0 0 0 0 0 0 0 0 0 0 0 0 0 0 0 127 0"></feColorMatrix><feOffset dy="0.5"></feOffset><feComposite in2="hardAlpha" k2="-1" k3="1" operator="arithmetic"></feComposite><feColorMatrix values="0 0 0 0 1 0 0 0 0 1 0 0 0 0 1 0 0 0 0.1 0"></feColorMatrix><feBlend in2="shape" result="effect1_innerShadow_5002_422651"></feBlend></filter><filter id="audioNormal_svg__c" width="14" height="19.411" x="13" y="11.089" color-interpolation-filters="sRGB" filterUnits="userSpaceOnUse"><feFlood flood-opacity="0" result="BackgroundImageFix"></feFlood><feColorMatrix in="SourceAlpha" result="hardAlpha" values="0 0 0 0 0 0 0 0 0 0 0 0 0 0 0 0 0 0 127 0"></feColorMatrix><feOffset dy="1"></feOffset><feGaussianBlur stdDeviation="1"></feGaussianBlur><feComposite in2="hardAlpha" operator="out"></feComposite><feColorMatrix values="0 0 0 0 0 0 0 0 0 0 0 0 0 0 0 0 0 0 0.1 0"></feColorMatrix><feBlend in2="BackgroundImageFix" result="effect1_dropShadow_5002_422651"></feBlend><feBlend in="SourceGraphic" in2="effect1_dropShadow_5002_422651" result="shape"></feBlend></filter><linearGradient id="audioNormal_svg__b" x1="20" x2="20" y1="8" y2="32" gradientUnits="userSpaceOnUse"><stop stop-color="#fff"></stop><stop offset="1" stop-color="#fff" stop-opacity="0"></stop></linearGradient><linearGradient id="audioNormal_svg__b" x1="20" x2="20" y1="8" y2="32" gradientUnits="userSpaceOnUse"><stop stop-color="#fff"></stop><stop offset="1" stop-color="#fff" stop-opacity="0"></stop></linearGradient></defs></svg>