<svg xmlns:xlink="http://www.w3.org/1999/xlink" xmlns="http://www.w3.org/2000/svg" width="40" height="40" fill="none" viewBox="0 0 40 40"><g fill="#C2C4C8" filter="url(#brandKits_svg__a)"><path d="M8 17.6c0-3.36 0-5.04.654-6.324a6 6 0 0 1 2.622-2.622C12.56 8 14.24 8 17.6 8h4.8c3.36 0 5.04 0 6.324.654a6 6 0 0 1 2.622 2.622C32 12.56 32 14.24 32 17.6v4.8c0 3.36 0 5.04-.654 6.324a6 6 0 0 1-2.622 2.622C27.44 32 25.76 32 22.4 32h-4.8c-3.36 0-5.04 0-6.324-.654a6 6 0 0 1-2.622-2.622C8 27.44 8 25.76 8 22.4z" fill="#C2C4C8"></path><path fill-opacity="0.2" d="M8 17.6c0-3.36 0-5.04.654-6.324a6 6 0 0 1 2.622-2.622C12.56 8 14.24 8 17.6 8h4.8c3.36 0 5.04 0 6.324.654a6 6 0 0 1 2.622 2.622C32 12.56 32 14.24 32 17.6v4.8c0 3.36 0 5.04-.654 6.324a6 6 0 0 1-2.622 2.622C27.44 32 25.76 32 22.4 32h-4.8c-3.36 0-5.04 0-6.324-.654a6 6 0 0 1-2.622-2.622C8 27.44 8 25.76 8 22.4z" fill="#C2C4C8"></path></g><g filter="url(#brandKits_svg__b)" fill="none"><path fill="#FFFFFF" d="M20.69 25.685c-.257.253-.386.379-.395.49a.3.3 0 0 0 .104.253c.084.072.265.072.627.072h3.075c.84 0 1.26 0 1.58-.163a1.5 1.5 0 0 0 .656-.656c.164-.32.164-.74.164-1.581v-1.2c0-.84 0-1.26-.164-1.581a1.5 1.5 0 0 0-.349-.448c-.07-.061-.105-.092-.174-.11a.35.35 0 0 0-.181.01c-.066.024-.11.071-.196.164-1.518 1.638-3.15 3.183-4.746 4.75"></path></g><g filter="url(#brandKits_svg__c)" fill="none"><path fill="#FFFFFF" d="M20.999 22.089c0 .363 0 .544.073.628a.3.3 0 0 0 .251.104c.11-.009.239-.137.495-.393l2.188-2.188c.594-.594.891-.891 1.003-1.234a1.5 1.5 0 0 0 0-.927c-.112-.342-.409-.64-1.003-1.233l-.848-.849c-.594-.594-.891-.89-1.234-1.002a1.5 1.5 0 0 0-.598-.068c-.088.008-.132.012-.19.046a.36.36 0 0 0-.118.13c-.03.061-.03.121-.03.24z"></path></g><g filter="url(#brandKits_svg__d)" fill="none"><path fill="#FFFFFF" fill-rule="evenodd" d="M13.664 14.319c-.164.32-.164.74-.164 1.581v7.6a3 3 0 1 0 6 0v-7.6c0-.84 0-1.26-.163-1.581a1.5 1.5 0 0 0-.656-.655c-.32-.164-.74-.164-1.581-.164h-1.2c-.84 0-1.26 0-1.581.164a1.5 1.5 0 0 0-.655.655M16.5 25.25a1.75 1.75 0 1 0 0-3.5 1.75 1.75 0 0 0 0 3.5" clip-rule="evenodd"></path></g><defs><filter id="brandKits_svg__a" width="24" height="24" x="8" y="8" color-interpolation-filters="sRGB" filterUnits="userSpaceOnUse"><feFlood flood-opacity="0" result="BackgroundImageFix"></feFlood><feBlend in="SourceGraphic" in2="BackgroundImageFix" result="shape"></feBlend><feColorMatrix in="SourceAlpha" result="hardAlpha" values="0 0 0 0 0 0 0 0 0 0 0 0 0 0 0 0 0 0 127 0"></feColorMatrix><feOffset dy="0.5"></feOffset><feComposite in2="hardAlpha" k2="-1" k3="1" operator="arithmetic"></feComposite><feColorMatrix values="0 0 0 0 1 0 0 0 0 1 0 0 0 0 1 0 0 0 0.1 0"></feColorMatrix><feBlend in2="shape" result="effect1_innerShadow_20557_10257"></feBlend></filter><filter id="brandKits_svg__b" width="12.205" height="11.747" x="17.295" y="19.253" color-interpolation-filters="sRGB" filterUnits="userSpaceOnUse"><feFlood flood-opacity="0" result="BackgroundImageFix"></feFlood><feColorMatrix in="SourceAlpha" result="hardAlpha" values="0 0 0 0 0 0 0 0 0 0 0 0 0 0 0 0 0 0 127 0"></feColorMatrix><feOffset dy="1.5"></feOffset><feGaussianBlur stdDeviation="1.5"></feGaussianBlur><feColorMatrix values="0 0 0 0 0 0 0 0 0 0 0 0 0 0 0 0 0 0 0.1 0"></feColorMatrix><feBlend in2="BackgroundImageFix" mode="multiply" result="effect1_dropShadow_20557_10257"></feBlend><feBlend in="SourceGraphic" in2="effect1_dropShadow_20557_10257" result="shape"></feBlend></filter><filter id="brandKits_svg__c" width="10.094" height="13.901" x="17.988" y="13.421" color-interpolation-filters="sRGB" filterUnits="userSpaceOnUse"><feFlood flood-opacity="0" result="BackgroundImageFix"></feFlood><feColorMatrix in="SourceAlpha" result="hardAlpha" values="0 0 0 0 0 0 0 0 0 0 0 0 0 0 0 0 0 0 127 0"></feColorMatrix><feOffset dy="1.5"></feOffset><feGaussianBlur stdDeviation="1.5"></feGaussianBlur><feColorMatrix values="0 0 0 0 0 0 0 0 0 0 0 0 0 0 0 0 0 0 0.1 0"></feColorMatrix><feBlend in2="BackgroundImageFix" mode="multiply" result="effect1_dropShadow_20557_10257"></feBlend><feBlend in="SourceGraphic" in2="effect1_dropShadow_20557_10257" result="shape"></feBlend></filter><filter id="brandKits_svg__d" width="12" height="19" x="10.5" y="12" color-interpolation-filters="sRGB" filterUnits="userSpaceOnUse"><feFlood flood-opacity="0" result="BackgroundImageFix"></feFlood><feColorMatrix in="SourceAlpha" result="hardAlpha" values="0 0 0 0 0 0 0 0 0 0 0 0 0 0 0 0 0 0 127 0"></feColorMatrix><feOffset dy="1.5"></feOffset><feGaussianBlur stdDeviation="1.5"></feGaussianBlur><feColorMatrix values="0 0 0 0 0 0 0 0 0 0 0 0 0 0 0 0 0 0 0.1 0"></feColorMatrix><feBlend in2="BackgroundImageFix" mode="multiply" result="effect1_dropShadow_20557_10257"></feBlend><feBlend in="SourceGraphic" in2="effect1_dropShadow_20557_10257" result="shape"></feBlend></filter></defs></svg>