<svg xmlns:xlink="http://www.w3.org/1999/xlink" xmlns="http://www.w3.org/2000/svg" width="40" height="40" fill="none" viewBox="0 0 40 40"><path fill="#C2C4C8" d="M8 17.6c0-3.36 0-5.04.654-6.324a6 6 0 0 1 2.622-2.622C12.56 8 14.24 8 17.6 8h4.8c3.36 0 5.04 0 6.324.654a6 6 0 0 1 2.622 2.622C32 12.56 32 14.24 32 17.6v3.424c0 1.467 0 2.2-.166 2.891a6 6 0 0 1-.718 1.735c-.371.605-.89 1.124-1.928 2.162l-1.376 1.376c-1.038 1.038-1.557 1.557-2.162 1.928a6 6 0 0 1-1.735.718c-.69.166-1.424.166-2.891.166H17.6c-3.36 0-5.04 0-6.324-.654a6 6 0 0 1-2.622-2.622C8 27.44 8 25.76 8 22.4z" class="elementsNormal_svg__main"></path><path fill="url(&quot;#elementsNormal_svg__a&quot;)" fill-opacity="0.2" d="M8 17.6c0-3.36 0-5.04.654-6.324a6 6 0 0 1 2.622-2.622C12.56 8 14.24 8 17.6 8h4.8c3.36 0 5.04 0 6.324.654a6 6 0 0 1 2.622 2.622C32 12.56 32 14.24 32 17.6v3.424c0 1.467 0 2.2-.166 2.891a6 6 0 0 1-.718 1.735c-.371.605-.89 1.124-1.928 2.162l-1.376 1.376c-1.038 1.038-1.557 1.557-2.162 1.928a6 6 0 0 1-1.735.718c-.69.166-1.424.166-2.891.166H17.6c-3.36 0-5.04 0-6.324-.654a6 6 0 0 1-2.622-2.622C8 27.44 8 25.76 8 22.4z"></path><path fill="#FFFFFF" d="M27.137 22H23.6c-.56 0-.84 0-1.054.109a1 1 0 0 0-.437.437C22 22.76 22 23.04 22 23.6v3.537c0 1.212 0 1.818.24 2.098a1 1 0 0 0 .838.348c.368-.03.797-.458 1.653-1.314l3.538-3.538c.856-.856 1.285-1.285 1.314-1.653a1 1 0 0 0-.348-.838c-.28-.24-.886-.24-2.098-.24"></path><defs><linearGradient id="elementsNormal_svg__a" x1="20" x2="20" y1="8" y2="32" gradientUnits="userSpaceOnUse"><stop stop-color="#fff"></stop><stop offset="1" stop-color="#fff" stop-opacity="0"></stop></linearGradient><linearGradient id="elementsNormal_svg__a" x1="20" x2="20" y1="8" y2="32" gradientUnits="userSpaceOnUse"><stop stop-color="#fff"></stop><stop offset="1" stop-color="#fff" stop-opacity="0"></stop></linearGradient></defs></svg>