<svg xmlns:xlink="http://www.w3.org/1999/xlink" xmlns="http://www.w3.org/2000/svg" width="40" height="40" fill="none" viewBox="0 0 40 40" class="sc-iKIYPR tFyRW"><g filter="url(#Help_svg__a)" fill="none"><path fill="#C2C4C8" d="M7.5 20.132c0 6.976 5.655 12.631 12.632 12.631s12.631-5.655 12.631-12.631c0-6.977-5.655-12.632-12.631-12.632C13.155 7.5 7.5 13.155 7.5 20.132" class="Help_svg__main"></path><path fill="url(&quot;#Help_svg__b&quot;)" fill-opacity="0.2" d="M7.5 20.132c0 6.976 5.655 12.631 12.632 12.631s12.631-5.655 12.631-12.631c0-6.977-5.655-12.632-12.631-12.632C13.155 7.5 7.5 13.155 7.5 20.132"></path></g><path fill="#FFFFFF" fill-rule="evenodd" d="M18.334 25.917a1.251 1.251 0 0 0 2.5 0 1.251 1.251 0 0 0-2.5 0m2.5-2.816v-1.017A4.16 4.16 0 0 0 24.167 18 4.17 4.17 0 0 0 20 13.833 4.17 4.17 0 0 0 15.834 18v.417c0 .23.186.416.416.416h1.667c.23 0 .416-.186.416-.416V18c0-.919.748-1.667 1.667-1.667s1.667.748 1.667 1.667-.748 1.667-1.667 1.667-1.666.748-1.666 1.666v1.768c0 .23.186.417.416.417h1.667c.23 0 .416-.186.416-.417" clip-rule="evenodd"></path><defs><linearGradient id="Help_svg__b" x1="20.132" x2="20.132" y1="7.5" y2="32.763" gradientUnits="userSpaceOnUse"><stop stop-color="#fff"></stop><stop offset="1" stop-color="#fff" stop-opacity="0"></stop></linearGradient><filter id="Help_svg__a" width="25.263" height="25.263" x="7.5" y="7.5" color-interpolation-filters="sRGB" filterUnits="userSpaceOnUse"><feFlood flood-opacity="0" result="BackgroundImageFix"></feFlood><feBlend in="SourceGraphic" in2="BackgroundImageFix" result="shape"></feBlend><feColorMatrix in="SourceAlpha" result="hardAlpha" values="0 0 0 0 0 0 0 0 0 0 0 0 0 0 0 0 0 0 127 0"></feColorMatrix><feOffset dy="0.5"></feOffset><feComposite in2="hardAlpha" k2="-1" k3="1" operator="arithmetic"></feComposite><feColorMatrix values="0 0 0 0 1 0 0 0 0 1 0 0 0 0 1 0 0 0 0.1 0"></feColorMatrix><feBlend in2="shape" result="effect1_innerShadow_605_16276"></feBlend></filter><linearGradient id="Help_svg__b" x1="20.132" x2="20.132" y1="7.5" y2="32.763" gradientUnits="userSpaceOnUse"><stop stop-color="#fff"></stop><stop offset="1" stop-color="#fff" stop-opacity="0"></stop></linearGradient></defs></svg>