<svg xmlns:xlink="http://www.w3.org/1999/xlink" xmlns="http://www.w3.org/2000/svg" width="40" height="40" fill="none" viewBox="0 0 40 40"><g filter="url(#uploadNormal_svg__a)" fill="none"><path fill="#7E8FFC" d="M8 17.6c0-3.36 0-5.04.654-6.324a6 6 0 0 1 2.622-2.622C12.56 8 14.24 8 17.6 8h4.8c3.36 0 5.04 0 6.324.654a6 6 0 0 1 2.622 2.622C32 12.56 32 14.24 32 17.6v4.8c0 3.36 0 5.04-.654 6.324a6 6 0 0 1-2.622 2.622C27.44 32 25.76 32 22.4 32h-4.8c-3.36 0-5.04 0-6.324-.654a6 6 0 0 1-2.622-2.622C8 27.44 8 25.76 8 22.4z" class="uploadNormal_svg__main"></path><path fill="url(&quot;#uploadNormal_svg__b&quot;)" fill-opacity="0.2" d="M8 17.6c0-3.36 0-5.04.654-6.324a6 6 0 0 1 2.622-2.622C12.56 8 14.24 8 17.6 8h4.8c3.36 0 5.04 0 6.324.654a6 6 0 0 1 2.622 2.622C32 12.56 32 14.24 32 17.6v4.8c0 3.36 0 5.04-.654 6.324a6 6 0 0 1-2.622 2.622C27.44 32 25.76 32 22.4 32h-4.8c-3.36 0-5.04 0-6.324-.654a6 6 0 0 1-2.622-2.622C8 27.44 8 25.76 8 22.4z"></path></g><g filter="url(#uploadNormal_svg__c)" fill="none"><path fill="#FFFFFF" fill-rule="evenodd" d="M21.499 15.499a1.5 1.5 0 0 0-3 0v3h-3a1.5 1.5 0 0 0 0 3h3v3a1.5 1.5 0 0 0 3 0v-3h3a1.5 1.5 0 0 0 0-3h-3z" clip-rule="evenodd"></path></g><defs><filter id="uploadNormal_svg__a" width="24" height="24" x="8" y="8" color-interpolation-filters="sRGB" filterUnits="userSpaceOnUse"><feFlood flood-opacity="0" result="BackgroundImageFix"></feFlood><feBlend in="SourceGraphic" in2="BackgroundImageFix" result="shape"></feBlend><feColorMatrix in="SourceAlpha" result="hardAlpha" values="0 0 0 0 0 0 0 0 0 0 0 0 0 0 0 0 0 0 127 0"></feColorMatrix><feOffset dy="0.5"></feOffset><feComposite in2="hardAlpha" k2="-1" k3="1" operator="arithmetic"></feComposite><feColorMatrix values="0 0 0 0 1 0 0 0 0 1 0 0 0 0 1 0 0 0 0.1 0"></feColorMatrix><feBlend in2="shape" result="effect1_innerShadow_605_11522"></feBlend></filter><filter id="uploadNormal_svg__c" width="16" height="16" x="11.999" y="12.999" color-interpolation-filters="sRGB" filterUnits="userSpaceOnUse"><feFlood flood-opacity="0" result="BackgroundImageFix"></feFlood><feColorMatrix in="SourceAlpha" result="hardAlpha" values="0 0 0 0 0 0 0 0 0 0 0 0 0 0 0 0 0 0 127 0"></feColorMatrix><feOffset dy="1"></feOffset><feGaussianBlur stdDeviation="1"></feGaussianBlur><feColorMatrix values="0 0 0 0 0 0 0 0 0 0 0 0 0 0 0 0 0 0 0.1 0"></feColorMatrix><feBlend in2="BackgroundImageFix" mode="multiply" result="effect1_dropShadow_605_11522"></feBlend><feBlend in="SourceGraphic" in2="effect1_dropShadow_605_11522" result="shape"></feBlend></filter><linearGradient id="uploadNormal_svg__b" x1="20" x2="20" y1="8" y2="32" gradientUnits="userSpaceOnUse"><stop stop-color="#fff"></stop><stop offset="1" stop-color="#fff" stop-opacity="0"></stop></linearGradient><linearGradient id="uploadNormal_svg__b" x1="20" x2="20" y1="8" y2="32" gradientUnits="userSpaceOnUse"><stop stop-color="#fff"></stop><stop offset="1" stop-color="#fff" stop-opacity="0"></stop></linearGradient></defs></svg>