<svg xmlns:xlink="http://www.w3.org/1999/xlink" xmlns="http://www.w3.org/2000/svg" width="40" height="40" fill="none" viewBox="0 0 40 40"><g fill-rule="evenodd" clip-rule="evenodd" filter="url(#recordNormal_svg__a)" fill="none"><path fill="#C2C4C8" d="M8.654 11.276C8 12.559 8 14.24 8 17.6v4.8c0 3.36 0 5.04.654 6.324a6 6 0 0 0 2.622 2.622C12.56 32 14.24 32 17.6 32h4.8c3.36 0 5.04 0 6.324-.654a6 6 0 0 0 2.622-2.622C32 27.44 32 25.76 32 22.4v-4.8c0-3.36 0-5.04-.654-6.324a6 6 0 0 0-2.622-2.622C27.44 8 25.76 8 22.4 8h-4.8c-3.36 0-5.04 0-6.324.654a6 6 0 0 0-2.622 2.622"></path><path fill="url(&quot;#recordNormal_svg__b&quot;)" fill-opacity="0.2" d="M8.654 11.276C8 12.559 8 14.24 8 17.6v4.8c0 3.36 0 5.04.654 6.324a6 6 0 0 0 2.622 2.622C12.56 32 14.24 32 17.6 32h4.8c3.36 0 5.04 0 6.324-.654a6 6 0 0 0 2.622-2.622C32 27.44 32 25.76 32 22.4v-4.8c0-3.36 0-5.04-.654-6.324a6 6 0 0 0-2.622-2.622C27.44 8 25.76 8 22.4 8h-4.8c-3.36 0-5.04 0-6.324.654a6 6 0 0 0-2.622 2.622"></path></g><g filter="url(#recordNormal_svg__c)" fill="none"><path fill="#FFFFFF" d="M13.666 16.667a2 2 0 0 1 2-2h6.667a2 2 0 0 1 2 2v6.666a2 2 0 0 1-2 2h-6.667a2 2 0 0 1-2-2zm14.667 6.173v-5.68a.667.667 0 0 0-1.003-.575L24.333 19v2l2.997 2.415a.667.667 0 0 0 1.003-.576"></path><path stroke="#FFFFFF" stroke-width="0.5px" d="M13.666 16.667a2 2 0 0 1 2-2h6.667a2 2 0 0 1 2 2v6.666a2 2 0 0 1-2 2h-6.667a2 2 0 0 1-2-2zm14.667 6.173v-5.68a.667.667 0 0 0-1.003-.575L24.333 19v2l2.997 2.415a.667.667 0 0 0 1.003-.576Z" fill="none"></path></g><defs><filter id="recordNormal_svg__a" width="24" height="24" x="8" y="8" color-interpolation-filters="sRGB" filterUnits="userSpaceOnUse"><feFlood flood-opacity="0" result="BackgroundImageFix"></feFlood><feBlend in="SourceGraphic" in2="BackgroundImageFix" result="shape"></feBlend><feColorMatrix in="SourceAlpha" result="hardAlpha" values="0 0 0 0 0 0 0 0 0 0 0 0 0 0 0 0 0 0 127 0"></feColorMatrix><feOffset dy="0.5"></feOffset><feComposite in2="hardAlpha" k2="-1" k3="1" operator="arithmetic"></feComposite><feColorMatrix values="0 0 0 0 1 0 0 0 0 1 0 0 0 0 1 0 0 0 0.1 0"></feColorMatrix><feBlend in2="shape" result="effect1_innerShadow_22821_144295"></feBlend></filter><filter id="recordNormal_svg__c" width="20" height="20" x="11" y="11" color-interpolation-filters="sRGB" filterUnits="userSpaceOnUse"><feFlood flood-opacity="0" result="BackgroundImageFix"></feFlood><feColorMatrix in="SourceAlpha" result="hardAlpha" values="0 0 0 0 0 0 0 0 0 0 0 0 0 0 0 0 0 0 127 0"></feColorMatrix><feOffset dy="1"></feOffset><feGaussianBlur stdDeviation="1"></feGaussianBlur><feComposite in2="hardAlpha" operator="out"></feComposite><feColorMatrix values="0 0 0 0 0 0 0 0 0 0 0 0 0 0 0 0 0 0 0.1 0"></feColorMatrix><feBlend in2="BackgroundImageFix" result="effect1_dropShadow_22821_144295"></feBlend><feBlend in="SourceGraphic" in2="effect1_dropShadow_22821_144295" result="shape"></feBlend></filter><linearGradient id="recordNormal_svg__b" x1="20" x2="20" y1="8" y2="32" gradientUnits="userSpaceOnUse"><stop stop-color="#fff"></stop><stop offset="1" stop-color="#fff" stop-opacity="0"></stop></linearGradient><linearGradient id="recordNormal_svg__b" x1="20" x2="20" y1="8" y2="32" gradientUnits="userSpaceOnUse"><stop stop-color="#fff"></stop><stop offset="1" stop-color="#fff" stop-opacity="0"></stop></linearGradient></defs></svg>