<svg xmlns:xlink="http://www.w3.org/1999/xlink" xmlns="http://www.w3.org/2000/svg" width="40" height="40" fill="none" viewBox="0 0 40 40"><g filter="url(#searchNormal_svg__a)" fill="none"><path fill="#C2C4C8" fill-rule="evenodd" d="M8.654 11.276C8 12.56 8 14.24 8 17.6v4.8c0 3.36 0 5.04.654 6.324a6 6 0 0 0 2.622 2.622C12.56 32 14.24 32 17.6 32h4.8c3.36 0 5.04 0 6.324-.654a6 6 0 0 0 2.622-2.622C32 27.44 32 25.76 32 22.4v-4.8c0-3.36 0-5.04-.654-6.324a6 6 0 0 0-2.622-2.622C27.44 8 25.76 8 22.4 8h-4.8c-3.36 0-5.04 0-6.324.654a6 6 0 0 0-2.622 2.622" clip-rule="evenodd"></path></g><path stroke="#FFFFFF" stroke-linecap="round" stroke-linejoin="round" stroke-width="2px" d="m26 26-2.9-2.9m1.567-3.767a5.333 5.333 0 1 1-10.667 0 5.333 5.333 0 0 1 10.667 0" fill="none"></path><defs><filter id="searchNormal_svg__a" width="24" height="24" x="8" y="8" color-interpolation-filters="sRGB" filterUnits="userSpaceOnUse"><feFlood flood-opacity="0" result="BackgroundImageFix"></feFlood><feBlend in="SourceGraphic" in2="BackgroundImageFix" result="shape"></feBlend><feColorMatrix in="SourceAlpha" result="hardAlpha" values="0 0 0 0 0 0 0 0 0 0 0 0 0 0 0 0 0 0 127 0"></feColorMatrix><feOffset dy="0.5"></feOffset><feComposite in2="hardAlpha" k2="-1" k3="1" operator="arithmetic"></feComposite><feColorMatrix values="0 0 0 0 1 0 0 0 0 1 0 0 0 0 1 0 0 0 0.1 0"></feColorMatrix><feBlend in2="shape" result="effect1_innerShadow_883_124470"></feBlend></filter></defs></svg>