<svg xmlns:xlink="http://www.w3.org/1999/xlink" xmlns="http://www.w3.org/2000/svg" width="40" height="40" fill="none" viewBox="0 0 40 40"><path fill="#C2C4C8" fill-rule="evenodd" d="M18.56 7.154c-1.074.232-2.083.825-4.103 2.01l-.914.537c-2.02 1.186-3.03 1.778-3.763 2.608a7.1 7.1 0 0 0-1.44 2.537C8 15.906 8 17.092 8 19.463v1.074c0 2.37 0 3.556.34 4.618.3.938.79 1.803 1.44 2.537.734.829 1.743 1.421 3.763 2.607l.914.537c2.02 1.185 3.03 1.778 4.102 2.01.95.205 1.932.205 2.881 0 1.074-.232 2.083-.825 4.103-2.01l.914-.537c2.02-1.186 3.03-1.778 3.764-2.607a7.1 7.1 0 0 0 1.44-2.538c.339-1.06.339-2.246.339-4.617v-1.074c0-2.37 0-3.556-.34-4.618a7.1 7.1 0 0 0-1.44-2.536c-.734-.83-1.743-1.422-3.763-2.608l-.914-.537c-2.02-1.185-3.03-1.778-4.102-2.01a6.8 6.8 0 0 0-2.881 0" class="settingsNormal_svg__main" clip-rule="evenodd"></path><path fill="url(&quot;#settingsNormal_svg__a&quot;)" fill-opacity="0.2" fill-rule="evenodd" d="M18.56 7.154c-1.074.232-2.083.825-4.103 2.01l-.914.537c-2.02 1.186-3.03 1.778-3.763 2.608a7.1 7.1 0 0 0-1.44 2.537C8 15.906 8 17.092 8 19.463v1.074c0 2.37 0 3.556.34 4.618.3.938.79 1.803 1.44 2.537.734.829 1.743 1.421 3.763 2.607l.914.537c2.02 1.185 3.03 1.778 4.102 2.01.95.205 1.932.205 2.881 0 1.074-.232 2.083-.825 4.103-2.01l.914-.537c2.02-1.186 3.03-1.778 3.764-2.607a7.1 7.1 0 0 0 1.44-2.538c.339-1.06.339-2.246.339-4.617v-1.074c0-2.37 0-3.556-.34-4.618a7.1 7.1 0 0 0-1.44-2.536c-.734-.83-1.743-1.422-3.763-2.608l-.914-.537c-2.02-1.185-3.03-1.778-4.102-2.01a6.8 6.8 0 0 0-2.881 0" clip-rule="evenodd"></path><circle cx="20" cy="20" r="5" fill="#FFFFFF"></circle><defs><linearGradient id="settingsNormal_svg__a" x1="20" x2="20" y1="7" y2="33" gradientUnits="userSpaceOnUse"><stop stop-color="#fff"></stop><stop offset="1" stop-color="#fff" stop-opacity="0"></stop></linearGradient><linearGradient id="settingsNormal_svg__a" x1="20" x2="20" y1="7" y2="33" gradientUnits="userSpaceOnUse"><stop stop-color="#fff"></stop><stop offset="1" stop-color="#fff" stop-opacity="0"></stop></linearGradient></defs></svg>