<svg xmlns:xlink="http://www.w3.org/1999/xlink" width="40" height="40" viewBox="0 0 40 40" fill="none" xmlns="http://www.w3.org/2000/svg"><style fill="none">
      #transform-group {
        transform: var(--subtitles-scale-subtitle-icon, 'scale(1)');
      }
      #circle-indicator {
        transform: rotate(-90deg);
        transform-origin: center;
        transition: all 1s;
      }
    </style><circle id="circle-indicator" cx="20" cy="20" r="18" pathLength="100" fill="#000000" stroke="#C2C4C8" stroke-dasharray="100" stroke-width="2px" stroke-dashoffset="var(--subtitles-current-percentage-diff)" visibility="var(--subtitles-current-hidden)" fill-opacity="0"></circle><g id="transform-group" transform-origin="center" fill="none"><circle class="background" cx="20" cy="20" r="20" fill="none"></circle><path fill-rule="evenodd" clip-rule="evenodd" d="M8.65396 11.2761C8 12.5595 8 14.2397 8 17.6V22.4C8 25.7603 8 27.4405 8.65396 28.7239C9.2292 29.8529 10.1471 30.7708 11.2761 31.346C12.5595 32 14.2397 32 17.6 32H22.4C25.7603 32 27.4405 32 28.7239 31.346C29.8529 30.7708 30.7708 29.8529 31.346 28.7239C32 27.4405 32 25.7603 32 22.4V17.6C32 14.2397 32 12.5595 31.346 11.2761C30.7708 10.1471 29.8529 9.2292 28.7239 8.65396C27.4405 8 25.7603 8 22.4 8H17.6C14.2397 8 12.5595 8 11.2761 8.65396C10.1471 9.2292 9.2292 10.1471 8.65396 11.2761ZM14 25.0966C13.2751 25.0966 12.6875 25.6842 12.6875 26.4091C12.6875 27.134 13.2751 27.7216 14 27.7216H26C26.7249 27.7216 27.3125 27.134 27.3125 26.4091C27.3125 25.6842 26.7249 25.0966 26 25.0966H14Z" fill="#C2C4C8"></path><path fill-rule="evenodd" clip-rule="evenodd" d="M8.65396 11.2761C8 12.5595 8 14.2397 8 17.6V22.4C8 25.7603 8 27.4405 8.65396 28.7239C9.2292 29.8529 10.1471 30.7708 11.2761 31.346C12.5595 32 14.2397 32 17.6 32H22.4C25.7603 32 27.4405 32 28.7239 31.346C29.8529 30.7708 30.7708 29.8529 31.346 28.7239C32 27.4405 32 25.7603 32 22.4V17.6C32 14.2397 32 12.5595 31.346 11.2761C30.7708 10.1471 29.8529 9.2292 28.7239 8.65396C27.4405 8 25.7603 8 22.4 8H17.6C14.2397 8 12.5595 8 11.2761 8.65396C10.1471 9.2292 9.2292 10.1471 8.65396 11.2761ZM14 25.0966C13.2751 25.0966 12.6875 25.6842 12.6875 26.4091C12.6875 27.134 13.2751 27.7216 14 27.7216H26C26.7249 27.7216 27.3125 27.134 27.3125 26.4091C27.3125 25.6842 26.7249 25.0966 26 25.0966H14Z" fill="url(&quot;#paint0_linear&quot;)" fill-opacity="0.2"></path><path d="M12.6875 26.4091C12.6875 25.6842 13.2751 25.0966 14 25.0966H26C26.7249 25.0966 27.3125 25.6842 27.3125 26.4091C27.3125 27.134 26.7249 27.7216 26 27.7216H14C13.2751 27.7216 12.6875 27.134 12.6875 26.4091Z" fill="#C2C4C8"></path><path d="M12.6875 26.4091C12.6875 25.6842 13.2751 25.0966 14 25.0966H26C26.7249 25.0966 27.3125 25.6842 27.3125 26.4091C27.3125 27.134 26.7249 27.7216 26 27.7216H14C13.2751 27.7216 12.6875 27.134 12.6875 26.4091Z" fill="url(&quot;#paint1_linear&quot;)" fill-opacity="0.2"></path><path d="M12.6875 26.4091C12.6875 25.6842 13.2751 25.0966 14 25.0966H26C26.7249 25.0966 27.3125 25.6842 27.3125 26.4091C27.3125 27.134 26.7249 27.7216 26 27.7216H14C13.2751 27.7216 12.6875 27.134 12.6875 26.4091Z" fill="#FFFFFF"></path></g><defs><linearGradient id="paint0_linear" x1="20" y1="8" x2="20" y2="32" gradientUnits="userSpaceOnUse"><stop stop-color="white"></stop><stop offset="1" stop-color="white" stop-opacity="0"></stop></linearGradient><linearGradient id="paint1_linear" x1="20" y1="8" x2="20" y2="32" gradientUnits="userSpaceOnUse"><stop stop-color="white"></stop><stop offset="1" stop-color="white" stop-opacity="0"></stop></linearGradient><linearGradient id="paint0_linear" x1="20" y1="8" x2="20" y2="32" gradientUnits="userSpaceOnUse"><stop stop-color="white"></stop><stop offset="1" stop-color="white" stop-opacity="0"></stop></linearGradient><linearGradient id="paint1_linear" x1="20" y1="8" x2="20" y2="32" gradientUnits="userSpaceOnUse"><stop stop-color="white"></stop><stop offset="1" stop-color="white" stop-opacity="0"></stop></linearGradient></defs></svg>