<svg viewBox="0 0 35 28" xmlns:xlink="http://www.w3.org/1999/xlink" width="35" height="28" fill="currentColor" xmlns="http://www.w3.org/2000/svg" class="w-[35px] h-[28px] transition-color duration-500 ease-in-out"><path fill-rule="evenodd" clip-rule="evenodd" d="M4 0a4 4 0 0 0-4 4v20a4 4 0 0 0 4 4h27a4 4 0 0 0 4-4V4a4 4 0 0 0-4-4H4Zm6.938 7.438c-1.209 0-2.188.979-2.188 2.187V14a2.188 2.188 0 0 0 4.375 0V9.625c0-1.208-.98-2.188-2.188-2.188Zm10.39 12.03a.547.547 0 1 1 0 1.095h-7.11a.547.547 0 1 1 0-1.094h7.11Zm2.735-12.03c-1.209 0-2.188.979-2.188 2.187V14a2.188 2.188 0 0 0 4.375 0V9.625c0-1.208-.98-2.188-2.188-2.188Z" fill="#323232"></path></svg>