<svg viewBox="0 0 70 30" xmlns:xlink="http://www.w3.org/1999/xlink" width="70" height="30" fill="none" xmlns="http://www.w3.org/2000/svg"><rect width="70" height="30" rx="6" fill="#FFFFFF"></rect><g clip-path="url(#share-button_svg__a)" fill="none"><path d="M21.32 14.445h1.618m0 0h1.617m-1.617 0v-1.617m0 1.617v1.618m-1.665 3.93v-1.11a2.218 2.218 0 0 0-2.218-2.219h-4.438a2.219 2.219 0 0 0-2.219 2.22v1.109m6.657-7.766a2.219 2.219 0 1 1-4.438 0 2.219 2.219 0 0 1 4.438 0Z" stroke="#454545" stroke-width="1.109px" stroke-linecap="round" stroke-linejoin="round" fill="none"></path></g><path d="M35.943 12.844a.998.998 0 0 0-.45-.75c-.265-.18-.597-.27-.998-.27-.287 0-.535.045-.744.136-.21.089-.372.212-.488.369a.87.87 0 0 0-.171.529c0 .166.039.31.116.43.08.12.183.222.31.304.13.08.27.147.417.201.148.053.29.096.427.13l.683.178c.223.054.452.128.686.222.235.093.452.216.652.368.2.153.362.342.485.567.125.226.188.495.188.81 0 .395-.102.747-.307 1.054-.203.308-.498.55-.885.728-.384.177-.85.266-1.396.266-.524 0-.977-.083-1.359-.25a2.092 2.092 0 0 1-.898-.706 2.05 2.05 0 0 1-.358-1.093h1.058c.02.253.102.464.246.632.146.166.331.29.556.372.228.08.477.12.748.12.298 0 .564-.047.796-.14.234-.096.419-.228.553-.396a.938.938 0 0 0 .201-.598.733.733 0 0 0-.177-.508 1.311 1.311 0 0 0-.475-.328 4.638 4.638 0 0 0-.672-.23l-.827-.224c-.56-.153-1.004-.377-1.331-.673-.326-.296-.489-.688-.489-1.175 0-.402.11-.754.328-1.055.219-.3.514-.534.888-.7a3.038 3.038 0 0 1 1.263-.252c.474 0 .891.083 1.253.249.364.166.651.395.86.686.21.29.32.622.328.997h-1.017Zm3.313 2.042V18h-1.021v-6.993h1.007v2.602h.065c.123-.282.31-.506.563-.672.253-.167.583-.25.99-.25.36 0 .674.074.943.222.27.148.48.369.628.662.15.292.226.656.226 1.093V18h-1.021v-3.213c0-.385-.1-.683-.297-.895-.198-.213-.474-.32-.827-.32-.241 0-.457.05-.648.153a1.107 1.107 0 0 0-.448.45c-.107.197-.16.433-.16.711Zm6.29 3.23c-.333 0-.634-.061-.902-.184a1.518 1.518 0 0 1-.639-.543c-.155-.237-.232-.527-.232-.87 0-.297.057-.54.17-.731a1.26 1.26 0 0 1 .462-.455c.193-.111.41-.195.648-.252.24-.057.483-.1.731-.13l.765-.089c.196-.025.338-.065.427-.12.089-.054.133-.143.133-.266v-.024c0-.298-.084-.529-.253-.693-.166-.164-.414-.245-.744-.245-.344 0-.615.076-.813.228-.196.15-.33.318-.406.502l-.96-.218c.114-.319.28-.576.499-.772.22-.198.475-.341.761-.43a2.97 2.97 0 0 1 .905-.137c.21 0 .432.025.666.075.237.048.458.137.662.267.208.13.377.315.51.556.131.24.197.55.197.932V18h-.997v-.717h-.04a1.453 1.453 0 0 1-.298.39 1.579 1.579 0 0 1-.509.317 1.974 1.974 0 0 1-.744.126Zm.221-.82c.282 0 .524-.055.724-.167.203-.111.356-.257.46-.437.108-.182.161-.376.161-.584v-.676a.533.533 0 0 1-.211.103c-.103.03-.22.056-.352.078l-.386.058-.314.041a2.527 2.527 0 0 0-.543.127.932.932 0 0 0-.39.256.64.64 0 0 0-.143.437c0 .253.094.444.28.573.187.128.425.192.714.192Zm3.726.704v-5.245h.987v.834h.054c.096-.283.264-.505.506-.666.243-.164.519-.246.826-.246a4.307 4.307 0 0 1 .434.024v.976a1.834 1.834 0 0 0-.219-.037 2.09 2.09 0 0 0-.314-.024c-.241 0-.456.051-.645.154a1.14 1.14 0 0 0-.608 1.027V18h-1.021Zm5.763.106c-.517 0-.962-.11-1.335-.331a2.246 2.246 0 0 1-.86-.94c-.201-.405-.301-.88-.301-1.423 0-.537.1-1.01.3-1.42.203-.41.485-.73.847-.96.364-.23.79-.345 1.277-.345.296 0 .583.05.86.147.278.098.527.252.748.461.22.21.395.481.523.816.127.332.19.736.19 1.212v.362h-4.168v-.765h3.168c0-.268-.054-.506-.164-.713a1.24 1.24 0 0 0-1.15-.676c-.287 0-.537.07-.751.211a1.421 1.421 0 0 0-.492.547c-.114.223-.17.465-.17.727v.597c0 .35.06.65.184.895.125.246.299.434.522.563.223.128.484.191.782.191.193 0 .37-.027.53-.082a1.1 1.1 0 0 0 .68-.666l.965.175a1.748 1.748 0 0 1-.417.748 2.019 2.019 0 0 1-.748.495 2.798 2.798 0 0 1-1.02.174Z" fill="#454545"></path><defs><clipPath id="share-button_svg__a"><path fill="#fff" transform="translate(11.844 8.344)" d="M0 0h13.313v13.313H0z"></path></clipPath></defs></svg>