<svg viewBox="0 0 48 544" xmlns:xlink="http://www.w3.org/1999/xlink" width="48" height="544" fill="none" xmlns="http://www.w3.org/2000/svg"><rect x="0.554" y="0.554" width="46.892" height="542.893" rx="23.404" fill="#FFFFFF"></rect><rect x="0.554" y="0.554" width="46.892" height="542.893" rx="23.404" stroke="#F4F5F5" stroke-width="1.107px" fill="none"></rect><path d="M19.572 38.014h8.86m-8.86-2.953h8.86m-8.86 5.907h8.86" stroke="#DADADA" stroke-width="1.107px" stroke-linecap="round" stroke-linejoin="round" fill="none"></path><g filter="url(#toolbar_svg__a)" fill-rule="evenodd" clip-rule="evenodd" fill="none"><path d="M22.937 87.82c-.793.171-1.538.609-3.029 1.484l-.675.396c-1.491.876-2.237 1.313-2.779 1.925a5.224 5.224 0 0 0-1.063 1.873c-.25.784-.25 1.66-.25 3.41v.793c0 1.75 0 2.625.25 3.409a5.228 5.228 0 0 0 1.063 1.873c.542.612 1.288 1.05 2.779 1.925l.675.396c1.49.876 2.236 1.313 3.029 1.484a5.018 5.018 0 0 0 2.127 0c.792-.171 1.538-.608 3.028-1.484l.676-.396c1.49-.875 2.236-1.313 2.778-1.925.48-.542.842-1.18 1.063-1.873.25-.784.25-1.659.25-3.41v-.792c0-1.75 0-2.626-.25-3.41a5.224 5.224 0 0 0-1.063-1.873c-.542-.612-1.287-1.05-2.778-1.925l-.676-.396c-1.49-.875-2.236-1.313-3.028-1.484a5.034 5.034 0 0 0-2.127 0Z" fill="#DADADA"></path><path d="M22.937 87.82c-.793.171-1.538.609-3.029 1.484l-.675.396c-1.491.876-2.237 1.313-2.779 1.925a5.224 5.224 0 0 0-1.063 1.873c-.25.784-.25 1.66-.25 3.41v.793c0 1.75 0 2.625.25 3.409a5.228 5.228 0 0 0 1.063 1.873c.542.612 1.288 1.05 2.779 1.925l.675.396c1.49.876 2.236 1.313 3.029 1.484a5.018 5.018 0 0 0 2.127 0c.792-.171 1.538-.608 3.028-1.484l.676-.396c1.49-.875 2.236-1.313 2.778-1.925.48-.542.842-1.18 1.063-1.873.25-.784.25-1.659.25-3.41v-.792c0-1.75 0-2.626-.25-3.41a5.224 5.224 0 0 0-1.063-1.873c-.542-.612-1.287-1.05-2.778-1.925l-.676-.396c-1.49-.875-2.236-1.313-3.028-1.484a5.034 5.034 0 0 0-2.127 0Z" fill="url(&quot;#toolbar_svg__b&quot;)" fill-opacity="0.2"></path></g><g filter="url(#toolbar_svg__c)" fill="none"><circle cx="24" cy="97.304" r="3.692" fill="#FFFFFF"></circle></g><rect x="9.233" y="119.453" width="29.532" height="29.532" rx="14.766" fill="#5667F5"></rect><g filter="url(#toolbar_svg__d)" fill="none"><path d="M15.14 132.447c0-2.481 0-3.721.482-4.669a4.434 4.434 0 0 1 1.936-1.936c.948-.483 2.188-.483 4.67-.483h3.543c2.481 0 3.721 0 4.67.483a4.434 4.434 0 0 1 1.935 1.936c.483.948.483 2.188.483 4.669v3.544c0 2.481 0 3.721-.483 4.669a4.429 4.429 0 0 1-1.936 1.936c-.948.483-2.188.483-4.669.483h-3.544c-2.48 0-3.721 0-4.669-.483a4.429 4.429 0 0 1-1.936-1.936c-.483-.948-.483-2.188-.483-4.669v-3.544Z" fill="#5667F5"></path><path d="M15.14 132.447c0-2.481 0-3.721.482-4.669a4.434 4.434 0 0 1 1.936-1.936c.948-.483 2.188-.483 4.67-.483h3.543c2.481 0 3.721 0 4.67.483a4.434 4.434 0 0 1 1.935 1.936c.483.948.483 2.188.483 4.669v3.544c0 2.481 0 3.721-.483 4.669a4.429 4.429 0 0 1-1.936 1.936c-.948.483-2.188.483-4.669.483h-3.544c-2.48 0-3.721 0-4.669-.483a4.429 4.429 0 0 1-1.936-1.936c-.483-.948-.483-2.188-.483-4.669v-3.544Z" fill="url(&quot;#toolbar_svg__e&quot;)" fill-opacity="0.2"></path></g><g filter="url(#toolbar_svg__f)" fill="none"><path fill-rule="evenodd" clip-rule="evenodd" d="M25.108 130.897a1.108 1.108 0 1 0-2.215 0v2.214h-2.216a1.108 1.108 0 0 0 0 2.215h2.216v2.215a1.108 1.108 0 1 0 2.215 0v-2.215h2.214a1.108 1.108 0 0 0 0-2.215h-2.214v-2.214Z" fill="#FFFFFF"></path></g><g filter="url(#toolbar_svg__g)" fill="none"><path d="M15.14 177.927c0-2.894 0-4.341.563-5.447a5.167 5.167 0 0 1 2.258-2.258c1.106-.564 2.553-.564 5.448-.564h1.18c2.895 0 4.343 0 5.448.564a5.167 5.167 0 0 1 2.259 2.258c.563 1.106.563 2.553.563 5.447v1.182c0 2.894 0 4.341-.563 5.447a5.167 5.167 0 0 1-2.259 2.258c-1.105.564-2.553.564-5.447.564h-1.181c-2.895 0-4.342 0-5.448-.564a5.167 5.167 0 0 1-2.258-2.258c-.564-1.106-.564-2.553-.564-5.447v-1.182Z" fill="#DADADA"></path><path d="M15.14 177.927c0-2.894 0-4.341.563-5.447a5.167 5.167 0 0 1 2.258-2.258c1.106-.564 2.553-.564 5.448-.564h1.18c2.895 0 4.343 0 5.448.564a5.167 5.167 0 0 1 2.259 2.258c.563 1.106.563 2.553.563 5.447v1.182c0 2.894 0 4.341-.563 5.447a5.167 5.167 0 0 1-2.259 2.258c-1.105.564-2.553.564-5.447.564h-1.181c-2.895 0-4.342 0-5.448-.564a5.167 5.167 0 0 1-2.258-2.258c-.564-1.106-.564-2.553-.564-5.447v-1.182Z" fill="url(&quot;#toolbar_svg__h&quot;)" fill-opacity="0.2"></path></g><g filter="url(#toolbar_svg__i)" fill="none"><path fill-rule="evenodd" clip-rule="evenodd" d="M24.737 181.773v-5.556c0-.373.277-.687.646-.733l1.66-.207a.739.739 0 0 0 .647-.733v-1.128a.74.74 0 0 0-.8-.736l-2.151.183a1.477 1.477 0 0 0-1.352 1.519l.178 5.504a2.215 2.215 0 1 0 1.172 1.887Z" fill="#FFFFFF"></path></g><g filter="url(#toolbar_svg__j)" fill="none"><path fill-rule="evenodd" clip-rule="evenodd" d="M15.623 216.376c-.483.947-.483 2.188-.483 4.669v3.544c0 2.481 0 3.721.483 4.669a4.434 4.434 0 0 0 1.936 1.936c.947.483 2.188.483 4.669.483h3.544c2.48 0 3.721 0 4.669-.483a4.434 4.434 0 0 0 1.936-1.936c.483-.948.483-2.188.483-4.669v-3.544c0-2.481 0-3.722-.483-4.669a4.43 4.43 0 0 0-1.936-1.936c-.948-.483-2.188-.483-4.67-.483h-3.543c-2.481 0-3.722 0-4.67.483a4.43 4.43 0 0 0-1.935 1.936Zm3.947 10.204a.968.968 0 1 0 0 1.938h8.86a.97.97 0 0 0 0-1.938h-8.86Z" fill="#DADADA"></path><path fill-rule="evenodd" clip-rule="evenodd" d="M15.623 216.376c-.483.947-.483 2.188-.483 4.669v3.544c0 2.481 0 3.721.483 4.669a4.434 4.434 0 0 0 1.936 1.936c.947.483 2.188.483 4.669.483h3.544c2.48 0 3.721 0 4.669-.483a4.434 4.434 0 0 0 1.936-1.936c.483-.948.483-2.188.483-4.669v-3.544c0-2.481 0-3.722-.483-4.669a4.43 4.43 0 0 0-1.936-1.936c-.948-.483-2.188-.483-4.67-.483h-3.543c-2.481 0-3.722 0-4.67.483a4.43 4.43 0 0 0-1.935 1.936Zm3.947 10.204a.968.968 0 1 0 0 1.938h8.86a.97.97 0 0 0 0-1.938h-8.86Z" fill="url(&quot;#toolbar_svg__k&quot;)" fill-opacity="0.2"></path><path d="M18.601 227.549c0-.536.434-.969.969-.969h8.86a.969.969 0 1 1 0 1.938h-8.86a.97.97 0 0 1-.969-.969Z" fill="#DADADA"></path><path d="M18.601 227.549c0-.536.434-.969.969-.969h8.86a.969.969 0 1 1 0 1.938h-8.86a.97.97 0 0 1-.969-.969Z" fill="url(&quot;#toolbar_svg__l&quot;)" fill-opacity="0.2"></path></g><g filter="url(#toolbar_svg__m)" fill="none"><path d="M18.601 227.549c0-.536.434-.969.969-.969h8.86a.969.969 0 1 1 0 1.938h-8.86a.97.97 0 0 1-.969-.969Z" fill="#FFFFFF"></path></g><g filter="url(#toolbar_svg__n)" fill="none"><path fill-rule="evenodd" clip-rule="evenodd" d="M15.623 260.675c-.483.947-.483 2.188-.483 4.669v3.544c0 2.481 0 3.721.483 4.669a4.434 4.434 0 0 0 1.936 1.936c.947.482 2.188.482 4.669.482h3.544c2.48 0 3.721 0 4.669-.482a4.434 4.434 0 0 0 1.936-1.936c.482-.948.482-2.188.482-4.669v-3.544c0-2.481 0-3.722-.483-4.669a4.424 4.424 0 0 0-1.935-1.936c-.948-.483-2.188-.483-4.67-.483h-3.543c-2.481 0-3.722 0-4.67.483a4.424 4.424 0 0 0-1.935 1.936Zm4.085 3.118a.97.97 0 0 1 .97-.969h6.644a.97.97 0 0 1 0 1.938h-2.353v5.676a.97.97 0 0 1-1.938 0v-5.676h-2.354a.97.97 0 0 1-.969-.969Z" fill="#DADADA"></path><path fill-rule="evenodd" clip-rule="evenodd" d="M15.623 260.675c-.483.947-.483 2.188-.483 4.669v3.544c0 2.481 0 3.721.483 4.669a4.434 4.434 0 0 0 1.936 1.936c.947.482 2.188.482 4.669.482h3.544c2.48 0 3.721 0 4.669-.482a4.434 4.434 0 0 0 1.936-1.936c.482-.948.482-2.188.482-4.669v-3.544c0-2.481 0-3.722-.483-4.669a4.424 4.424 0 0 0-1.935-1.936c-.948-.483-2.188-.483-4.67-.483h-3.543c-2.481 0-3.722 0-4.67.483a4.424 4.424 0 0 0-1.935 1.936Zm4.085 3.118a.97.97 0 0 1 .97-.969h6.644a.97.97 0 0 1 0 1.938h-2.353v5.676a.97.97 0 0 1-1.938 0v-5.676h-2.354a.97.97 0 0 1-.969-.969Z" fill="url(&quot;#toolbar_svg__o&quot;)" fill-opacity="0.2"></path><path d="M20.677 262.824a.97.97 0 0 0 0 1.938h2.354v5.676a.97.97 0 0 0 1.938 0v-5.676h2.353a.97.97 0 0 0 0-1.938h-6.645Z" fill="#DADADA"></path><path d="M20.677 262.824a.97.97 0 0 0 0 1.938h2.354v5.676a.97.97 0 0 0 1.938 0v-5.676h2.353a.97.97 0 0 0 0-1.938h-6.645Z" fill="url(&quot;#toolbar_svg__p&quot;)" fill-opacity="0.2"></path></g><g filter="url(#toolbar_svg__q)" fill="none"><path d="M20.677 262.824a.97.97 0 0 0 0 1.938h2.354v5.676a.97.97 0 0 0 1.938 0v-5.676h2.353a.97.97 0 0 0 0-1.938h-6.645Z" fill="#FFFFFF"></path></g><g filter="url(#toolbar_svg__r)" fill="none"><path d="M15.14 309.642c0-2.48 0-3.721.482-4.669a4.427 4.427 0 0 1 1.936-1.935c.948-.483 2.188-.483 4.67-.483h3.543c2.481 0 3.721 0 4.67.483a4.426 4.426 0 0 1 1.935 1.935c.483.948.483 2.189.483 4.669v2.528c0 1.084 0 1.625-.123 2.135a4.44 4.44 0 0 1-.53 1.281c-.274.447-.657.83-1.423 1.596l-1.016 1.016c-.767.766-1.15 1.149-1.597 1.423a4.442 4.442 0 0 1-1.28.531c-.51.122-1.052.122-2.135.122h-2.528c-2.48 0-3.721 0-4.669-.483a4.424 4.424 0 0 1-1.936-1.936c-.483-.947-.483-2.188-.483-4.669v-3.544Z" fill="#DADADA"></path><path d="M15.14 309.642c0-2.48 0-3.721.482-4.669a4.427 4.427 0 0 1 1.936-1.935c.948-.483 2.188-.483 4.67-.483h3.543c2.481 0 3.721 0 4.67.483a4.426 4.426 0 0 1 1.935 1.935c.483.948.483 2.189.483 4.669v2.528c0 1.084 0 1.625-.123 2.135a4.44 4.44 0 0 1-.53 1.281c-.274.447-.657.83-1.423 1.596l-1.016 1.016c-.767.766-1.15 1.149-1.597 1.423a4.442 4.442 0 0 1-1.28.531c-.51.122-1.052.122-2.135.122h-2.528c-2.48 0-3.721 0-4.669-.483a4.424 4.424 0 0 1-1.936-1.936c-.483-.947-.483-2.188-.483-4.669v-3.544Z" fill="url(&quot;#toolbar_svg__s&quot;)" fill-opacity="0.2"></path></g><g filter="url(#toolbar_svg__t)" fill="none"><path d="M29.27 312.892h-2.61c-.414 0-.621 0-.78.08a.74.74 0 0 0-.322.323c-.08.158-.08.364-.08.778v2.611c0 .895 0 1.342.177 1.549.153.18.383.276.619.257.272-.021.588-.338 1.22-.97l2.612-2.612c.632-.632.949-.949.97-1.22a.74.74 0 0 0-.256-.62c-.207-.176-.655-.176-1.55-.176Z" fill="#FFFFFF"></path></g><g filter="url(#toolbar_svg__u)" fill="none"><path d="M15.142 355.122c0-2.895 0-4.342.563-5.448a5.167 5.167 0 0 1 2.259-2.258c1.106-.563 2.553-.563 5.447-.563h1.181c2.895 0 4.342 0 5.448.563a5.167 5.167 0 0 1 2.258 2.258c.564 1.106.564 2.553.564 5.448v1.181c0 2.894 0 4.342-.564 5.447a5.17 5.17 0 0 1-2.258 2.259c-1.106.563-2.553.563-5.447.563H23.41c-2.894 0-4.341 0-5.447-.563a5.169 5.169 0 0 1-2.259-2.259c-.563-1.105-.563-2.553-.563-5.447v-1.181Z" fill="#DADADA"></path><path d="M15.142 355.122c0-2.895 0-4.342.563-5.448a5.167 5.167 0 0 1 2.259-2.258c1.106-.563 2.553-.563 5.447-.563h1.181c2.895 0 4.342 0 5.448.563a5.167 5.167 0 0 1 2.258 2.258c.564 1.106.564 2.553.564 5.448v1.181c0 2.894 0 4.342-.564 5.447a5.17 5.17 0 0 1-2.258 2.259c-1.106.563-2.553.563-5.447.563H23.41c-2.894 0-4.341 0-5.447-.563a5.169 5.169 0 0 1-2.259-2.259c-.563-1.105-.563-2.553-.563-5.447v-1.181Z" fill="url(&quot;#toolbar_svg__v&quot;)" fill-opacity="0.2"></path></g><g filter="url(#toolbar_svg__w)" fill="none"><path fill-rule="evenodd" clip-rule="evenodd" d="M20.078 352.39c-.688 0-1.245.557-1.245 1.246v4.153c0 .688.557 1.245 1.245 1.245h4.153c.688 0 1.246-.557 1.246-1.245v-4.153c0-.689-.558-1.246-1.246-1.246h-4.153Zm6.506 2.094 2.214-1.288a.492.492 0 0 1 .74.424v4.184a.492.492 0 0 1-.74.424l-2.213-1.288v-2.456Z" fill="#FFFFFF"></path></g><g filter="url(#toolbar_svg__x)" fill="none"><path d="M15.143 399.42c0-2.894 0-4.341.563-5.447a5.167 5.167 0 0 1 2.259-2.258c1.105-.564 2.552-.564 5.447-.564h1.181c2.894 0 4.342 0 5.447.564a5.167 5.167 0 0 1 2.259 2.258c.563 1.106.563 2.553.563 5.447v1.182c0 2.894 0 4.341-.563 5.447a5.174 5.174 0 0 1-2.259 2.259c-1.105.563-2.553.563-5.447.563h-1.181c-2.895 0-4.342 0-5.447-.563a5.174 5.174 0 0 1-2.26-2.259c-.562-1.106-.562-2.553-.562-5.447v-1.182Z" fill="#DADADA"></path><path d="M15.143 399.42c0-2.894 0-4.341.563-5.447a5.167 5.167 0 0 1 2.259-2.258c1.105-.564 2.552-.564 5.447-.564h1.181c2.894 0 4.342 0 5.447.564a5.167 5.167 0 0 1 2.259 2.258c.563 1.106.563 2.553.563 5.447v1.182c0 2.894 0 4.341-.563 5.447a5.174 5.174 0 0 1-2.259 2.259c-1.105.563-2.553.563-5.447.563h-1.181c-2.895 0-4.342 0-5.447-.563a5.174 5.174 0 0 1-2.26-2.259c-.562-1.106-.562-2.553-.562-5.447v-1.182Z" fill="url(&quot;#toolbar_svg__y&quot;)" fill-opacity="0.2"></path></g><g filter="url(#toolbar_svg__z)" fill="none"><path d="M25.271 401.13c-.51-.345-.764-.518-.853-.736a.778.778 0 0 1 0-.592c.09-.217.344-.39.853-.736l2.86-1.942c.632-.43.948-.644 1.21-.63a.78.78 0 0 1 .58.306c.158.21.158.592.158 1.356v3.884c0 .765 0 1.147-.159 1.356a.784.784 0 0 1-.579.307c-.262.014-.578-.201-1.21-.63l-2.86-1.943Z" fill="#DADADA"></path><path d="M25.271 401.13c-.51-.345-.764-.518-.853-.736a.778.778 0 0 1 0-.592c.09-.217.344-.39.853-.736l2.86-1.942c.632-.43.948-.644 1.21-.63a.78.78 0 0 1 .58.306c.158.21.158.592.158 1.356v3.884c0 .765 0 1.147-.159 1.356a.784.784 0 0 1-.579.307c-.262.014-.578-.201-1.21-.63l-2.86-1.943Z" fill="url(&quot;#toolbar_svg__A&quot;)" fill-opacity="0.2"></path></g><g filter="url(#toolbar_svg__B)" fill="none"><path d="M22.705 399.065c.51.346.764.519.854.736a.779.779 0 0 1 0 .592c-.09.218-.344.391-.854.736l-2.859 1.943c-.632.429-.948.644-1.21.63a.783.783 0 0 1-.58-.307c-.159-.209-.159-.591-.159-1.356v-3.884c0-.764 0-1.146.16-1.356a.78.78 0 0 1 .578-.306c.263-.014.579.2 1.211.63l2.86 1.942Z" fill="#FFFFFF"></path></g><g filter="url(#toolbar_svg__C)" fill="none"><path d="M24 452.082v-15.543a7.772 7.772 0 0 1 0 15.543Z" fill="#DADADA"></path><path d="M24 452.082v-15.543a7.772 7.772 0 0 1 0 15.543Z" fill="url(&quot;#toolbar_svg__D&quot;)" fill-opacity="0.2"></path></g><g filter="url(#toolbar_svg__E)" fill="none"><path d="M14.672 444.31a9.326 9.326 0 0 0 9.326 9.326 9.326 9.326 0 1 0-9.326-9.326Z" fill="#DADADA"></path><path d="M14.672 444.31a9.326 9.326 0 0 0 9.326 9.326 9.326 9.326 0 1 0-9.326-9.326Z" fill="url(&quot;#toolbar_svg__F&quot;)" fill-opacity="0.2"></path></g><g filter="url(#toolbar_svg__G)" fill="none"><path d="M24 437.316v13.989a6.995 6.995 0 0 1 0-13.989Z" fill="#FFFFFF"></path></g><g clip-path="url(#toolbar_svg__H)" fill="none"><path d="M16.987 515.285c0-3.867 3.146-7.014 7.014-7.014a7.022 7.022 0 0 1 7.014 7.014c0 3.867-3.147 7.013-7.015 7.013-3.867 0-7.013-3.146-7.013-7.013Zm5.414 3.999a1.293 1.293 0 1 0 1.843-1.169h.064a.677.677 0 0 0 .677-.677v-.696a3.442 3.442 0 0 0 2.461-3.303c0-1.9-1.545-3.445-3.446-3.445a3.449 3.449 0 0 0-3.445 3.445v.308c0 .374.303.677.677.677h1.23a.677.677 0 0 0 .677-.677v-.308c0-.474.387-.861.861-.861.475 0 .862.387.862.861a.863.863 0 0 1-.861.862 1.6 1.6 0 0 0-1.6 1.599v1.538c0 .374.303.677.677.677h.064a1.293 1.293 0 0 0-.741 1.169Z" fill="#F4F5F5" stroke="#F4F5F5" stroke-width="0.738px"></path></g><defs><filter id="toolbar_svg__a" x="15.14" y="87.706" width="17.72" height="19.196" filterUnits="userSpaceOnUse" color-interpolation-filters="sRGB"><feFlood flood-opacity="0" result="BackgroundImageFix"></feFlood><feBlend in="SourceGraphic" in2="BackgroundImageFix" result="shape"></feBlend><feColorMatrix in="SourceAlpha" values="0 0 0 0 0 0 0 0 0 0 0 0 0 0 0 0 0 0 127 0" result="hardAlpha"></feColorMatrix><feOffset dy="0.369"></feOffset><feComposite in2="hardAlpha" operator="arithmetic" k2="-1" k3="1"></feComposite><feColorMatrix values="0 0 0 0 1 0 0 0 0 1 0 0 0 0 1 0 0 0 0.1 0"></feColorMatrix><feBlend in2="shape" result="effect1_innerShadow_4115_3355"></feBlend></filter><filter id="toolbar_svg__c" x="18.832" y="92.874" width="10.336" height="10.336" filterUnits="userSpaceOnUse" color-interpolation-filters="sRGB"><feFlood flood-opacity="0" result="BackgroundImageFix"></feFlood><feColorMatrix in="SourceAlpha" values="0 0 0 0 0 0 0 0 0 0 0 0 0 0 0 0 0 0 127 0" result="hardAlpha"></feColorMatrix><feOffset dy="0.738"></feOffset><feGaussianBlur stdDeviation="0.738"></feGaussianBlur><feColorMatrix values="0 0 0 0 0 0 0 0 0 0 0 0 0 0 0 0 0 0 0.1 0"></feColorMatrix><feBlend mode="multiply" in2="BackgroundImageFix" result="effect1_dropShadow_4115_3355"></feBlend><feBlend in="SourceGraphic" in2="effect1_dropShadow_4115_3355" result="shape"></feBlend></filter><filter id="toolbar_svg__d" x="12.186" y="124.621" width="23.626" height="25.103" filterUnits="userSpaceOnUse" color-interpolation-filters="sRGB"><feFlood flood-opacity="0" result="BackgroundImageFix"></feFlood><feColorMatrix in="SourceAlpha" values="0 0 0 0 0 0 0 0 0 0 0 0 0 0 0 0 0 0 127 0" result="hardAlpha"></feColorMatrix><feOffset dy="2.215"></feOffset><feGaussianBlur stdDeviation="1.477"></feGaussianBlur><feColorMatrix values="0 0 0 0 0 0 0 0 0 0 0 0 0 0 0 0 0 0 0.05 0"></feColorMatrix><feBlend mode="multiply" in2="BackgroundImageFix" result="effect1_dropShadow_4115_3355"></feBlend><feColorMatrix in="SourceAlpha" values="0 0 0 0 0 0 0 0 0 0 0 0 0 0 0 0 0 0 127 0" result="hardAlpha"></feColorMatrix><feOffset dy="3.692"></feOffset><feGaussianBlur stdDeviation="1.477"></feGaussianBlur><feColorMatrix values="0 0 0 0 0 0 0 0 0 0 0 0 0 0 0 0 0 0 0.05 0"></feColorMatrix><feBlend mode="multiply" in2="effect1_dropShadow_4115_3355" result="effect2_dropShadow_4115_3355"></feBlend><feBlend in="SourceGraphic" in2="effect2_dropShadow_4115_3355" result="shape"></feBlend><feColorMatrix in="SourceAlpha" values="0 0 0 0 0 0 0 0 0 0 0 0 0 0 0 0 0 0 127 0" result="hardAlpha"></feColorMatrix><feOffset dy="0.369"></feOffset><feComposite in2="hardAlpha" operator="arithmetic" k2="-1" k3="1"></feComposite><feColorMatrix values="0 0 0 0 1 0 0 0 0 1 0 0 0 0 1 0 0 0 0.1 0"></feColorMatrix><feBlend in2="shape" result="effect3_innerShadow_4115_3355"></feBlend></filter><filter id="toolbar_svg__f" x="18.093" y="129.051" width="11.813" height="11.813" filterUnits="userSpaceOnUse" color-interpolation-filters="sRGB"><feFlood flood-opacity="0" result="BackgroundImageFix"></feFlood><feColorMatrix in="SourceAlpha" values="0 0 0 0 0 0 0 0 0 0 0 0 0 0 0 0 0 0 127 0" result="hardAlpha"></feColorMatrix><feOffset dy="0.738"></feOffset><feGaussianBlur stdDeviation="0.738"></feGaussianBlur><feColorMatrix values="0 0 0 0 0 0 0 0 0 0 0 0 0 0 0 0 0 0 0.1 0"></feColorMatrix><feBlend mode="multiply" in2="BackgroundImageFix" result="effect1_dropShadow_4115_3355"></feBlend><feBlend in="SourceGraphic" in2="effect1_dropShadow_4115_3355" result="shape"></feBlend></filter><filter id="toolbar_svg__g" x="15.139" y="169.658" width="17.72" height="17.72" filterUnits="userSpaceOnUse" color-interpolation-filters="sRGB"><feFlood flood-opacity="0" result="BackgroundImageFix"></feFlood><feBlend in="SourceGraphic" in2="BackgroundImageFix" result="shape"></feBlend><feColorMatrix in="SourceAlpha" values="0 0 0 0 0 0 0 0 0 0 0 0 0 0 0 0 0 0 127 0" result="hardAlpha"></feColorMatrix><feOffset dy="0.369"></feOffset><feComposite in2="hardAlpha" operator="arithmetic" k2="-1" k3="1"></feComposite><feColorMatrix values="0 0 0 0 1 0 0 0 0 1 0 0 0 0 1 0 0 0 0.1 0"></feColorMatrix><feBlend in2="shape" result="effect1_innerShadow_4115_3355"></feBlend></filter><filter id="toolbar_svg__i" x="18.831" y="171.939" width="10.335" height="14.331" filterUnits="userSpaceOnUse" color-interpolation-filters="sRGB"><feFlood flood-opacity="0" result="BackgroundImageFix"></feFlood><feColorMatrix in="SourceAlpha" values="0 0 0 0 0 0 0 0 0 0 0 0 0 0 0 0 0 0 127 0" result="hardAlpha"></feColorMatrix><feOffset dy="0.738"></feOffset><feGaussianBlur stdDeviation="0.738"></feGaussianBlur><feComposite in2="hardAlpha" operator="out"></feComposite><feColorMatrix values="0 0 0 0 0 0 0 0 0 0 0 0 0 0 0 0 0 0 0.1 0"></feColorMatrix><feBlend in2="BackgroundImageFix" result="effect1_dropShadow_4115_3355"></feBlend><feBlend in="SourceGraphic" in2="effect1_dropShadow_4115_3355" result="shape"></feBlend></filter><filter id="toolbar_svg__j" x="15.14" y="213.957" width="17.72" height="17.72" filterUnits="userSpaceOnUse" color-interpolation-filters="sRGB"><feFlood flood-opacity="0" result="BackgroundImageFix"></feFlood><feBlend in="SourceGraphic" in2="BackgroundImageFix" result="shape"></feBlend><feColorMatrix in="SourceAlpha" values="0 0 0 0 0 0 0 0 0 0 0 0 0 0 0 0 0 0 127 0" result="hardAlpha"></feColorMatrix><feOffset dy="0.369"></feOffset><feComposite in2="hardAlpha" operator="arithmetic" k2="-1" k3="1"></feComposite><feColorMatrix values="0 0 0 0 1 0 0 0 0 1 0 0 0 0 1 0 0 0 0.1 0"></feColorMatrix><feBlend in2="shape" result="effect1_innerShadow_4115_3355"></feBlend></filter><filter id="toolbar_svg__m" x="13.664" y="213.219" width="20.673" height="20.673" filterUnits="userSpaceOnUse" color-interpolation-filters="sRGB"><feFlood flood-opacity="0" result="BackgroundImageFix"></feFlood><feColorMatrix in="SourceAlpha" values="0 0 0 0 0 0 0 0 0 0 0 0 0 0 0 0 0 0 127 0" result="hardAlpha"></feColorMatrix><feOffset dy="0.738"></feOffset><feGaussianBlur stdDeviation="0.738"></feGaussianBlur><feColorMatrix values="0 0 0 0 0 0 0 0 0 0 0 0 0 0 0 0 0 0 0.1 0"></feColorMatrix><feBlend mode="multiply" in2="BackgroundImageFix" result="effect1_dropShadow_4115_3355"></feBlend><feBlend in="SourceGraphic" in2="effect1_dropShadow_4115_3355" result="shape"></feBlend></filter><filter id="toolbar_svg__n" x="15.14" y="258.256" width="17.72" height="17.72" filterUnits="userSpaceOnUse" color-interpolation-filters="sRGB"><feFlood flood-opacity="0" result="BackgroundImageFix"></feFlood><feBlend in="SourceGraphic" in2="BackgroundImageFix" result="shape"></feBlend><feColorMatrix in="SourceAlpha" values="0 0 0 0 0 0 0 0 0 0 0 0 0 0 0 0 0 0 127 0" result="hardAlpha"></feColorMatrix><feOffset dy="0.369"></feOffset><feComposite in2="hardAlpha" operator="arithmetic" k2="-1" k3="1"></feComposite><feColorMatrix values="0 0 0 0 1 0 0 0 0 1 0 0 0 0 1 0 0 0 0.1 0"></feColorMatrix><feBlend in2="shape" result="effect1_innerShadow_4115_3355"></feBlend></filter><filter id="toolbar_svg__q" x="13.663" y="257.518" width="20.673" height="20.673" filterUnits="userSpaceOnUse" color-interpolation-filters="sRGB"><feFlood flood-opacity="0" result="BackgroundImageFix"></feFlood><feColorMatrix in="SourceAlpha" values="0 0 0 0 0 0 0 0 0 0 0 0 0 0 0 0 0 0 127 0" result="hardAlpha"></feColorMatrix><feOffset dy="0.738"></feOffset><feGaussianBlur stdDeviation="0.738"></feGaussianBlur><feColorMatrix values="0 0 0 0 0 0 0 0 0 0 0 0 0 0 0 0 0 0 0.1 0"></feColorMatrix><feBlend mode="multiply" in2="BackgroundImageFix" result="effect1_dropShadow_4115_3355"></feBlend><feBlend in="SourceGraphic" in2="effect1_dropShadow_4115_3355" result="shape"></feBlend></filter><filter id="toolbar_svg__r" x="15.139" y="302.555" width="17.72" height="17.72" filterUnits="userSpaceOnUse" color-interpolation-filters="sRGB"><feFlood flood-opacity="0" result="BackgroundImageFix"></feFlood><feBlend in="SourceGraphic" in2="BackgroundImageFix" result="shape"></feBlend><feColorMatrix in="SourceAlpha" values="0 0 0 0 0 0 0 0 0 0 0 0 0 0 0 0 0 0 127 0" result="hardAlpha"></feColorMatrix><feOffset dy="0.369"></feOffset><feComposite in2="hardAlpha" operator="arithmetic" k2="-1" k3="1"></feComposite><feColorMatrix values="0 0 0 0 1 0 0 0 0 1 0 0 0 0 1 0 0 0 0.1 0"></feColorMatrix><feBlend in2="shape" result="effect1_innerShadow_4115_3355"></feBlend></filter><filter id="toolbar_svg__t" x="24.001" y="312.153" width="8.554" height="8.554" filterUnits="userSpaceOnUse" color-interpolation-filters="sRGB"><feFlood flood-opacity="0" result="BackgroundImageFix"></feFlood><feColorMatrix in="SourceAlpha" values="0 0 0 0 0 0 0 0 0 0 0 0 0 0 0 0 0 0 127 0" result="hardAlpha"></feColorMatrix><feOffset dy="0.738"></feOffset><feGaussianBlur stdDeviation="0.738"></feGaussianBlur><feColorMatrix values="0 0 0 0 0 0 0 0 0 0 0 0 0 0 0 0 0 0 0.1 0"></feColorMatrix><feBlend mode="multiply" in2="BackgroundImageFix" result="effect1_dropShadow_4115_3355"></feBlend><feBlend in="SourceGraphic" in2="effect1_dropShadow_4115_3355" result="shape"></feBlend></filter><filter id="toolbar_svg__u" x="15.142" y="346.853" width="17.72" height="17.72" filterUnits="userSpaceOnUse" color-interpolation-filters="sRGB"><feFlood flood-opacity="0" result="BackgroundImageFix"></feFlood><feBlend in="SourceGraphic" in2="BackgroundImageFix" result="shape"></feBlend><feColorMatrix in="SourceAlpha" values="0 0 0 0 0 0 0 0 0 0 0 0 0 0 0 0 0 0 127 0" result="hardAlpha"></feColorMatrix><feOffset dy="0.369"></feOffset><feComposite in2="hardAlpha" operator="arithmetic" k2="-1" k3="1"></feComposite><feColorMatrix values="0 0 0 0 1 0 0 0 0 1 0 0 0 0 1 0 0 0 0.1 0"></feColorMatrix><feBlend in2="shape" result="effect1_innerShadow_4115_3355"></feBlend></filter><filter id="toolbar_svg__w" x="17.356" y="351.651" width="13.659" height="9.598" filterUnits="userSpaceOnUse" color-interpolation-filters="sRGB"><feFlood flood-opacity="0" result="BackgroundImageFix"></feFlood><feColorMatrix in="SourceAlpha" values="0 0 0 0 0 0 0 0 0 0 0 0 0 0 0 0 0 0 127 0" result="hardAlpha"></feColorMatrix><feOffset dy="0.738"></feOffset><feGaussianBlur stdDeviation="0.738"></feGaussianBlur><feComposite in2="hardAlpha" operator="out"></feComposite><feColorMatrix values="0 0 0 0 0 0 0 0 0 0 0 0 0 0 0 0 0 0 0.1 0"></feColorMatrix><feBlend in2="BackgroundImageFix" result="effect1_dropShadow_4115_3355"></feBlend><feBlend in="SourceGraphic" in2="effect1_dropShadow_4115_3355" result="shape"></feBlend></filter><filter id="toolbar_svg__x" x="15.143" y="391.151" width="17.72" height="17.72" filterUnits="userSpaceOnUse" color-interpolation-filters="sRGB"><feFlood flood-opacity="0" result="BackgroundImageFix"></feFlood><feBlend in="SourceGraphic" in2="BackgroundImageFix" result="shape"></feBlend><feColorMatrix in="SourceAlpha" values="0 0 0 0 0 0 0 0 0 0 0 0 0 0 0 0 0 0 127 0" result="hardAlpha"></feColorMatrix><feOffset dy="0.369"></feOffset><feComposite in2="hardAlpha" operator="arithmetic" k2="-1" k3="1"></feComposite><feColorMatrix values="0 0 0 0 1 0 0 0 0 1 0 0 0 0 1 0 0 0 0.1 0"></feColorMatrix><feBlend in2="shape" result="effect1_innerShadow_4115_3355"></feBlend></filter><filter id="toolbar_svg__z" x="24.36" y="396.493" width="5.72" height="7.21" filterUnits="userSpaceOnUse" color-interpolation-filters="sRGB"><feFlood flood-opacity="0" result="BackgroundImageFix"></feFlood><feBlend in="SourceGraphic" in2="BackgroundImageFix" result="shape"></feBlend><feColorMatrix in="SourceAlpha" values="0 0 0 0 0 0 0 0 0 0 0 0 0 0 0 0 0 0 127 0" result="hardAlpha"></feColorMatrix><feOffset dy="0.369"></feOffset><feComposite in2="hardAlpha" operator="arithmetic" k2="-1" k3="1"></feComposite><feColorMatrix values="0 0 0 0 1 0 0 0 0 1 0 0 0 0 1 0 0 0 0.1 0"></feColorMatrix><feBlend in2="shape" result="effect1_innerShadow_4115_3355"></feBlend></filter><filter id="toolbar_svg__B" x="16.421" y="395.754" width="8.673" height="10.163" filterUnits="userSpaceOnUse" color-interpolation-filters="sRGB"><feFlood flood-opacity="0" result="BackgroundImageFix"></feFlood><feColorMatrix in="SourceAlpha" values="0 0 0 0 0 0 0 0 0 0 0 0 0 0 0 0 0 0 127 0" result="hardAlpha"></feColorMatrix><feOffset dy="0.738"></feOffset><feGaussianBlur stdDeviation="0.738"></feGaussianBlur><feColorMatrix values="0 0 0 0 0 0 0 0 0 0 0 0 0 0 0 0 0 0 0.1 0"></feColorMatrix><feBlend mode="multiply" in2="BackgroundImageFix" result="effect1_dropShadow_4115_3355"></feBlend><feBlend in="SourceGraphic" in2="effect1_dropShadow_4115_3355" result="shape"></feBlend></filter><filter id="toolbar_svg__C" x="23.999" y="436.539" width="7.772" height="15.543" filterUnits="userSpaceOnUse" color-interpolation-filters="sRGB"><feFlood flood-opacity="0" result="BackgroundImageFix"></feFlood><feBlend in="SourceGraphic" in2="BackgroundImageFix" result="shape"></feBlend><feColorMatrix in="SourceAlpha" values="0 0 0 0 0 0 0 0 0 0 0 0 0 0 0 0 0 0 127 0" result="hardAlpha"></feColorMatrix><feOffset dy="0.369"></feOffset><feComposite in2="hardAlpha" operator="arithmetic" k2="-1" k3="1"></feComposite><feColorMatrix values="0 0 0 0 1 0 0 0 0 1 0 0 0 0 1 0 0 0 0.1 0"></feColorMatrix><feBlend in2="shape" result="effect1_innerShadow_4115_3355"></feBlend></filter><filter id="toolbar_svg__E" x="14.672" y="434.984" width="18.652" height="18.652" filterUnits="userSpaceOnUse" color-interpolation-filters="sRGB"><feFlood flood-opacity="0" result="BackgroundImageFix"></feFlood><feBlend in="SourceGraphic" in2="BackgroundImageFix" result="shape"></feBlend><feColorMatrix in="SourceAlpha" values="0 0 0 0 0 0 0 0 0 0 0 0 0 0 0 0 0 0 127 0" result="hardAlpha"></feColorMatrix><feOffset dy="0.369"></feOffset><feComposite in2="hardAlpha" operator="arithmetic" k2="-1" k3="1"></feComposite><feColorMatrix values="0 0 0 0 1 0 0 0 0 1 0 0 0 0 1 0 0 0 0.1 0"></feColorMatrix><feBlend in2="shape" result="effect1_innerShadow_4115_3355"></feBlend></filter><filter id="toolbar_svg__G" x="15.528" y="437.315" width="9.948" height="16.942" filterUnits="userSpaceOnUse" color-interpolation-filters="sRGB"><feFlood flood-opacity="0" result="BackgroundImageFix"></feFlood><feColorMatrix in="SourceAlpha" values="0 0 0 0 0 0 0 0 0 0 0 0 0 0 0 0 0 0 127 0" result="hardAlpha"></feColorMatrix><feOffset dy="1.477"></feOffset><feGaussianBlur stdDeviation="0.738"></feGaussianBlur><feColorMatrix values="0 0 0 0 0 0 0 0 0 0 0 0 0 0 0 0 0 0 0.05 0"></feColorMatrix><feBlend mode="multiply" in2="BackgroundImageFix" result="effect1_dropShadow_4115_3355"></feBlend><feBlend in="SourceGraphic" in2="effect1_dropShadow_4115_3355" result="shape"></feBlend></filter><linearGradient id="toolbar_svg__b" x1="24" y1="87.706" x2="24" y2="106.902" gradientUnits="userSpaceOnUse"><stop stop-color="#fff"></stop><stop offset="1" stop-color="#fff" stop-opacity="0"></stop></linearGradient><linearGradient id="toolbar_svg__e" x1="23.999" y1="125.359" x2="23.999" y2="143.079" gradientUnits="userSpaceOnUse"><stop stop-color="#fff"></stop><stop offset="1" stop-color="#fff" stop-opacity="0"></stop><stop offset="1" stop-color="#fff" stop-opacity="0"></stop></linearGradient><linearGradient id="toolbar_svg__h" x1="23.999" y1="169.658" x2="23.999" y2="187.378" gradientUnits="userSpaceOnUse"><stop stop-color="#fff"></stop><stop offset="1" stop-color="#fff" stop-opacity="0"></stop></linearGradient><linearGradient id="toolbar_svg__k" x1="24" y1="213.957" x2="24" y2="231.677" gradientUnits="userSpaceOnUse"><stop stop-color="#fff"></stop><stop offset="1" stop-color="#fff" stop-opacity="0"></stop></linearGradient><linearGradient id="toolbar_svg__l" x1="24" y1="213.957" x2="24" y2="231.677" gradientUnits="userSpaceOnUse"><stop stop-color="#fff"></stop><stop offset="1" stop-color="#fff" stop-opacity="0"></stop></linearGradient><linearGradient id="toolbar_svg__o" x1="24" y1="258.256" x2="24" y2="275.975" gradientUnits="userSpaceOnUse"><stop stop-color="#fff"></stop><stop offset="1" stop-color="#fff" stop-opacity="0"></stop></linearGradient><linearGradient id="toolbar_svg__p" x1="24" y1="258.256" x2="24" y2="275.975" gradientUnits="userSpaceOnUse"><stop stop-color="#fff"></stop><stop offset="1" stop-color="#fff" stop-opacity="0"></stop></linearGradient><linearGradient id="toolbar_svg__s" x1="23.999" y1="302.555" x2="23.999" y2="320.274" gradientUnits="userSpaceOnUse"><stop stop-color="#fff"></stop><stop offset="1" stop-color="#fff" stop-opacity="0"></stop></linearGradient><linearGradient id="toolbar_svg__v" x1="24.002" y1="346.853" x2="24.002" y2="364.572" gradientUnits="userSpaceOnUse"><stop stop-color="#fff"></stop><stop offset="1" stop-color="#fff" stop-opacity="0"></stop></linearGradient><linearGradient id="toolbar_svg__y" x1="24.002" y1="391.151" x2="24.002" y2="408.871" gradientUnits="userSpaceOnUse"><stop stop-color="#fff"></stop><stop offset="1" stop-color="#fff" stop-opacity="0"></stop></linearGradient><linearGradient id="toolbar_svg__A" x1="27.22" y1="396.493" x2="27.22" y2="403.703" gradientUnits="userSpaceOnUse"><stop stop-color="#fff"></stop><stop offset="1" stop-color="#fff" stop-opacity="0"></stop></linearGradient><linearGradient id="toolbar_svg__D" x1="27.885" y1="436.539" x2="27.885" y2="452.082" gradientUnits="userSpaceOnUse"><stop stop-color="#fff"></stop><stop offset="1" stop-color="#fff" stop-opacity="0"></stop></linearGradient><linearGradient id="toolbar_svg__F" x1="23.998" y1="434.984" x2="23.998" y2="453.636" gradientUnits="userSpaceOnUse"><stop stop-color="#fff"></stop><stop offset="1" stop-color="#fff" stop-opacity="0"></stop></linearGradient><clipPath id="toolbar_svg__H"><path fill="#fff" transform="translate(16.617 507.902)" d="M0 0h14.766v14.765H0z"></path></clipPath><linearGradient id="toolbar_svg__b" x1="24" y1="87.706" x2="24" y2="106.902" gradientUnits="userSpaceOnUse"><stop stop-color="#fff"></stop><stop offset="1" stop-color="#fff" stop-opacity="0"></stop></linearGradient><linearGradient id="toolbar_svg__e" x1="23.999" y1="125.359" x2="23.999" y2="143.079" gradientUnits="userSpaceOnUse"><stop stop-color="#fff"></stop><stop offset="1" stop-color="#fff" stop-opacity="0"></stop><stop offset="1" stop-color="#fff" stop-opacity="0"></stop></linearGradient><linearGradient id="toolbar_svg__h" x1="23.999" y1="169.658" x2="23.999" y2="187.378" gradientUnits="userSpaceOnUse"><stop stop-color="#fff"></stop><stop offset="1" stop-color="#fff" stop-opacity="0"></stop></linearGradient><linearGradient id="toolbar_svg__k" x1="24" y1="213.957" x2="24" y2="231.677" gradientUnits="userSpaceOnUse"><stop stop-color="#fff"></stop><stop offset="1" stop-color="#fff" stop-opacity="0"></stop></linearGradient><linearGradient id="toolbar_svg__l" x1="24" y1="213.957" x2="24" y2="231.677" gradientUnits="userSpaceOnUse"><stop stop-color="#fff"></stop><stop offset="1" stop-color="#fff" stop-opacity="0"></stop></linearGradient><linearGradient id="toolbar_svg__o" x1="24" y1="258.256" x2="24" y2="275.975" gradientUnits="userSpaceOnUse"><stop stop-color="#fff"></stop><stop offset="1" stop-color="#fff" stop-opacity="0"></stop></linearGradient><linearGradient id="toolbar_svg__p" x1="24" y1="258.256" x2="24" y2="275.975" gradientUnits="userSpaceOnUse"><stop stop-color="#fff"></stop><stop offset="1" stop-color="#fff" stop-opacity="0"></stop></linearGradient><linearGradient id="toolbar_svg__s" x1="23.999" y1="302.555" x2="23.999" y2="320.274" gradientUnits="userSpaceOnUse"><stop stop-color="#fff"></stop><stop offset="1" stop-color="#fff" stop-opacity="0"></stop></linearGradient><linearGradient id="toolbar_svg__v" x1="24.002" y1="346.853" x2="24.002" y2="364.572" gradientUnits="userSpaceOnUse"><stop stop-color="#fff"></stop><stop offset="1" stop-color="#fff" stop-opacity="0"></stop></linearGradient><linearGradient id="toolbar_svg__y" x1="24.002" y1="391.151" x2="24.002" y2="408.871" gradientUnits="userSpaceOnUse"><stop stop-color="#fff"></stop><stop offset="1" stop-color="#fff" stop-opacity="0"></stop></linearGradient><linearGradient id="toolbar_svg__A" x1="27.22" y1="396.493" x2="27.22" y2="403.703" gradientUnits="userSpaceOnUse"><stop stop-color="#fff"></stop><stop offset="1" stop-color="#fff" stop-opacity="0"></stop></linearGradient><linearGradient id="toolbar_svg__D" x1="27.885" y1="436.539" x2="27.885" y2="452.082" gradientUnits="userSpaceOnUse"><stop stop-color="#fff"></stop><stop offset="1" stop-color="#fff" stop-opacity="0"></stop></linearGradient><linearGradient id="toolbar_svg__F" x1="23.998" y1="434.984" x2="23.998" y2="453.636" gradientUnits="userSpaceOnUse"><stop stop-color="#fff"></stop><stop offset="1" stop-color="#fff" stop-opacity="0"></stop></linearGradient></defs></svg>