<svg viewBox="0 0 35 28" xmlns:xlink="http://www.w3.org/1999/xlink" width="35" height="28" fill="currentColor" xmlns="http://www.w3.org/2000/svg" class="w-[35px] h-[28px] transition-color duration-500 ease-in-out text-enterprise-blue"><path fill-rule="evenodd" clip-rule="evenodd" d="M4 0a4 4 0 0 0-4 4v20a4 4 0 0 0 4 4h27a4 4 0 0 0 4-4V4a4 4 0 0 0-4-4H4Zm6.69 19.087c.737.294 1.58.442 2.53.442.715 0 1.37-.09 1.965-.27a5.06 5.06 0 0 0 1.589-.803 4.775 4.775 0 0 0 1.155-1.294 5.454 5.454 0 0 0 .688-1.728h-1.843a3.36 3.36 0 0 1-1.335 1.941 3.522 3.522 0 0 1-1.04.467 4.685 4.685 0 0 1-1.187.147c-.677 0-1.27-.106-1.777-.32a3.339 3.339 0 0 1-1.253-.924 4.078 4.078 0 0 1-.737-1.458 6.879 6.879 0 0 1-.246-1.908c0-.704.082-1.34.246-1.908.164-.568.41-1.051.737-1.45.333-.403.75-.712 1.253-.925.508-.218 1.1-.327 1.777-.327.415 0 .81.051 1.187.155.382.098.73.254 1.04.467.311.207.582.472.811.794.235.322.41.702.524 1.138h1.842a5.353 5.353 0 0 0-.687-1.727 4.66 4.66 0 0 0-1.155-1.286 4.84 4.84 0 0 0-1.589-.802 6.576 6.576 0 0 0-1.965-.279c-.95 0-1.793.15-2.53.45a5.076 5.076 0 0 0-1.851 1.253 5.495 5.495 0 0 0-1.138 1.941c-.257.754-.385 1.589-.385 2.506 0 .917.128 1.752.385 2.506.262.753.641 1.4 1.138 1.94.502.541 1.12.961 1.85 1.262Zm11.295.114c.524.219 1.113.328 1.768.328a4.85 4.85 0 0 0 1.54-.23 3.66 3.66 0 0 0 1.204-.63c.338-.278.614-.609.827-.99.212-.388.354-.817.425-1.287h-1.727c-.131.563-.393.991-.787 1.286-.387.295-.876.442-1.465.442-.36 0-.691-.068-.991-.204a2.167 2.167 0 0 1-.762-.615 3.052 3.052 0 0 1-.5-1.007 5.02 5.02 0 0 1-.171-1.384c0-.518.057-.977.172-1.376.12-.398.286-.731.5-.998.212-.268.466-.47.76-.606.301-.137.631-.205.992-.205.59 0 1.078.145 1.465.434.393.29.656.715.787 1.277h1.727c-.07-.47-.21-.895-.417-1.277a3.231 3.231 0 0 0-.82-.983 3.578 3.578 0 0 0-1.186-.63 4.85 4.85 0 0 0-1.54-.23c-.655 0-1.245.11-1.769.328a3.734 3.734 0 0 0-1.335.925 4.092 4.092 0 0 0-.843 1.45c-.197.562-.295 1.192-.295 1.891 0 .7.096 1.332.287 1.9.19.568.467 1.054.827 1.458.366.404.808.715 1.326.933Z" fill="#5667F5"></path></svg>