<svg viewBox="0 0 35 28" xmlns:xlink="http://www.w3.org/1999/xlink" width="35" height="28" fill="currentColor" xmlns="http://www.w3.org/2000/svg" class="w-[35px] h-[28px] transition-color duration-500 ease-in-out"><path fill-rule="evenodd" clip-rule="evenodd" d="M4 0a4 4 0 0 0-4 4v20a4 4 0 0 0 4 4h27a4 4 0 0 0 4-4V4a4 4 0 0 0-4-4H4Zm11.675 3.064a5.833 5.833 0 0 0-5.833 5.833 7.292 7.292 0 0 0 7.292 7.292h8.895c.102 0 .204-.004.304-.013l5.345.266-2.178-3.298c.02-.149.03-.3.03-.455v-2.625a7 7 0 0 0-7-7h-6.855Zm9.473 14.873a7.292 7.292 0 0 1-7.285 7H8.967c-.101 0-.201-.005-.3-.013l-5.349.266 2.178-3.298a3.531 3.531 0 0 1-.03-.456v-2.625A7 7 0 0 1 9.4 12.518a10.497 10.497 0 0 0 9.19 5.419h6.558Z" fill="#323232"></path></svg>