<svg xmlns:xlink="http://www.w3.org/1999/xlink" width="24" height="24" viewBox="0 0 24 24" fill="none" xmlns="http://www.w3.org/2000/svg" class="w-5 h-5"><g clip-path="url(#clip0_1366_2978)" fill="none"><path d="M12 24C18.6274 24 24 18.6274 24 12C24 5.37258 18.6274 0 12 0C5.37258 0 0 5.37258 0 12C0 18.6274 5.37258 24 12 24Z" fill="#AAAAAA"></path><path d="M17.1926 9.19213H15.143C15.1982 8.87053 15.3974 8.69053 15.8006 8.48653L16.1774 8.29453C16.8518 7.94893 17.2118 7.55773 17.2118 6.91933C17.2118 6.51853 17.0558 6.20173 16.7462 5.97373C16.4366 5.74573 16.0718 5.63293 15.6446 5.63293C15.3141 5.62904 14.9897 5.72162 14.711 5.89933C14.4302 6.07213 14.2214 6.29533 14.0918 6.57373L14.6846 7.16893C14.915 6.70333 15.2486 6.47533 15.6878 6.47533C16.0598 6.47533 16.2878 6.66733 16.2878 6.93373C16.2878 7.15693 16.1774 7.34173 15.7502 7.55773L15.5078 7.67533C14.9822 7.94173 14.6174 8.24653 14.4062 8.59213C14.195 8.93773 14.0918 9.37213 14.0918 9.89773V10.0417H17.1926V9.19213Z" fill="#FFFFFF"></path><path d="M16.9205 11.0195H13.5269L11.8301 13.9571H15.2237L16.9205 16.8971L18.6173 13.9571L16.9205 11.0195Z" fill="#FFFFFF"></path><path d="M12.1224 15.9186C9.96243 15.9186 8.20323 14.1594 8.20323 11.9994C8.20323 9.83938 9.96243 8.08018 12.1224 8.08018L13.464 5.27458C13.0222 5.18673 12.5729 5.14251 12.1224 5.14258C8.33523 5.14258 5.26562 8.21218 5.26562 11.9994C5.26562 15.7866 8.33523 18.8562 12.1224 18.8562C13.5738 18.8589 14.988 18.3981 16.1592 17.541L14.676 14.9682C13.9664 15.5811 13.0601 15.9185 12.1224 15.9186Z" fill="#FFFFFF"></path></g><defs><clipPath id="clip0_1366_2978"><rect width="24" height="24" fill="white"></rect></clipPath></defs></svg>