<svg viewBox="0 0 35 28" xmlns:xlink="http://www.w3.org/1999/xlink" width="35" height="28" fill="currentColor" xmlns="http://www.w3.org/2000/svg" class="w-[35px] h-[28px] transition-color duration-500 ease-in-out"><path fill-rule="evenodd" clip-rule="evenodd" d="M4 0a4 4 0 0 0-4 4v20a4 4 0 0 0 4 4h27a4 4 0 0 0 4-4V4a4 4 0 0 0-4-4H4Zm-.61 4.916c0-.743.602-1.344 1.344-1.344H7.11a.656.656 0 0 0 0-1.313H4.734a2.656 2.656 0 0 0-2.656 2.657v2.666a.656.656 0 1 0 1.313 0V4.916Zm26.876 19.51c.742 0 1.343-.601 1.343-1.343v-2.667a.656.656 0 1 1 1.313 0v2.666a2.656 2.656 0 0 1-2.656 2.657H27.89a.656.656 0 0 1 0-1.313h2.375Zm0-20.854c.742 0 1.343.601 1.343 1.344v2.666a.656.656 0 1 0 1.313 0V4.916a2.656 2.656 0 0 0-2.656-2.657H27.89a.656.656 0 0 0 0 1.313h2.375ZM3.39 23.082c0 .743.601 1.344 1.343 1.344H7.11a.656.656 0 1 1 0 1.313H4.734a2.656 2.656 0 0 1-2.656-2.657v-2.666a.656.656 0 1 1 1.313 0v2.666Zm14.107-11.27a2.188 2.188 0 1 0 0 4.375 2.188 2.188 0 0 0 0-4.375Z" fill="#323232"></path></svg>