<svg viewBox="0 0 70 30" xmlns:xlink="http://www.w3.org/1999/xlink" width="70" height="30" fill="none" xmlns="http://www.w3.org/2000/svg"><rect width="70" height="30" rx="6" fill="#323232"></rect><path d="M16.315 18H14.05v-6.993h2.335c.685 0 1.274.14 1.765.42.492.278.869.678 1.13 1.199.265.519.397 1.141.397 1.867 0 .729-.133 1.355-.4 1.878a2.803 2.803 0 0 1-1.147 1.209c-.5.28-1.106.42-1.816.42Zm-1.21-.922h1.151c.533 0 .976-.1 1.329-.3.352-.203.617-.495.792-.878.175-.385.263-.854.263-1.407 0-.548-.088-1.014-.263-1.396a1.857 1.857 0 0 0-.775-.87c-.344-.199-.77-.298-1.28-.298h-1.216v5.15Zm8.012 1.028c-.492 0-.92-.113-1.287-.338a2.279 2.279 0 0 1-.854-.946c-.203-.405-.304-.879-.304-1.42 0-.544.101-1.02.304-1.428.203-.407.487-.723.854-.949.366-.225.795-.338 1.287-.338.492 0 .92.113 1.287.338.367.226.651.542.854.95.202.407.304.883.304 1.427 0 .541-.102 1.015-.304 1.42-.203.405-.487.72-.854.946-.366.225-.795.338-1.287.338Zm.003-.857c.319 0 .583-.084.792-.253a1.48 1.48 0 0 0 .465-.672c.102-.28.154-.589.154-.926 0-.334-.052-.642-.154-.922a1.502 1.502 0 0 0-.465-.68c-.209-.17-.473-.255-.792-.255-.32 0-.587.085-.799.256-.21.17-.365.397-.467.68-.1.28-.15.587-.15.921 0 .337.05.646.15.925.102.28.258.505.467.673.212.169.478.253.8.253Zm4.602-2.363V18h-1.02v-5.245h.98v.854h.064c.12-.278.31-.5.567-.67.26-.168.586-.252.98-.252.357 0 .67.075.939.226.268.147.477.368.625.662.147.294.221.657.221 1.09V18h-1.02v-3.213c0-.38-.1-.677-.297-.891-.199-.216-.47-.325-.817-.325-.236 0-.447.052-.631.154a1.104 1.104 0 0 0-.434.45 1.488 1.488 0 0 0-.157.711Zm6.986 3.22c-.517 0-.962-.11-1.335-.331a2.245 2.245 0 0 1-.86-.94c-.2-.405-.301-.88-.301-1.423 0-.537.1-1.01.3-1.42.203-.41.485-.73.847-.96.364-.23.79-.345 1.277-.345.296 0 .583.05.86.147.278.098.528.252.748.461.221.21.395.481.523.816.127.332.191.736.191 1.212v.362h-4.169v-.765h3.169c0-.268-.055-.506-.164-.713a1.24 1.24 0 0 0-1.151-.676c-.287 0-.537.07-.751.211a1.421 1.421 0 0 0-.492.547c-.114.223-.17.465-.17.727v.597c0 .35.06.65.184.895.125.246.3.434.522.563.223.128.484.191.782.191.194 0 .37-.027.53-.082a1.099 1.099 0 0 0 .68-.666l.965.175a1.75 1.75 0 0 1-.416.748 2.02 2.02 0 0 1-.748.495 2.798 2.798 0 0 1-1.021.174Z" fill="#F4F5F5"></path><path d="m55.492 11.672-6.656 6.656L45.508 15" stroke="#DADADA" stroke-width="1.109px" stroke-linecap="round" stroke-linejoin="round" fill="none"></path></svg>