<svg viewBox="0 0 35 28" xmlns:xlink="http://www.w3.org/1999/xlink" width="35" height="28" fill="currentColor" xmlns="http://www.w3.org/2000/svg" class="w-[35px] h-[28px] transition-color duration-500 ease-in-out"><path fill-rule="evenodd" clip-rule="evenodd" d="M0 4a4 4 0 0 1 4-4h27a4 4 0 0 1 4 4v20a4 4 0 0 1-4 4H4a4 4 0 0 1-4-4V4Zm2.628.625a2 2 0 0 1 2-2h14.375a2 2 0 0 1 2 2V12a2 2 0 0 1-2 2H4.628a2 2 0 0 1-2-2V4.625Zm29.259 15.937a1.969 1.969 0 1 0-3.938 0 1.969 1.969 0 0 0 3.938 0Zm-6.89-3.937c1.086 0 1.968.881 1.968 1.969v3.937a1.969 1.969 0 1 1-3.938 0v-3.937c0-1.088.882-1.969 1.97-1.969Zm-2.954 1.969a1.969 1.969 0 1 0-3.938 0v3.937a1.969 1.969 0 1 0 3.938 0v-3.937Zm-6.89 0a1.969 1.969 0 1 1 0 3.937 1.969 1.969 0 0 1 0-3.938Zm-1.71-9.499a.875.875 0 0 0 0-1.565l-2.418-1.21a.875.875 0 0 0-1.266.783v2.419a.875.875 0 0 0 1.266.782l2.418-1.209Z" fill="#323232"></path></svg>