<svg viewBox="0 0 35 28" xmlns:xlink="http://www.w3.org/1999/xlink" width="35" height="28" fill="currentColor" xmlns="http://www.w3.org/2000/svg" class="w-[35px] h-[28px] transition-color duration-500 ease-in-out"><path fill-rule="evenodd" clip-rule="evenodd" d="M4 0a4 4 0 0 0-4 4v20a4 4 0 0 0 4 4h27a4 4 0 0 0 4-4V4a4 4 0 0 0-4-4H4Zm.855 13.952c-.274.188-.81.297-1.61.328l-.18.594h5.649l.18-.594c-.635-.02-1.072-.083-1.313-.187-.23-.104-.345-.276-.345-.516 0-.094.05-.318.148-.672l2.38-7.937h1.183c.526 0 .898.078 1.117.234.23.146.345.448.345.906 0 .282-.038.61-.115.985h.887l.821-3.156h-.772a.56.56 0 0 1-.28.265c-.098.031-.273.047-.525.047H5.66c-.252 0-.416-.016-.492-.047-.077-.042-.115-.13-.115-.265H4.28L3.196 7.093h.903c.361-.844.695-1.406 1.002-1.688.317-.291.81-.437 1.478-.437h1.297L5.48 12.952c-.143.48-.35.813-.624 1Zm8.27 2.016c0-5.437 4.407-9.844 9.844-9.844 5.436 0 9.843 4.407 9.843 9.844 0 5.436-4.407 9.843-9.843 9.843-5.437 0-9.844-4.407-9.844-9.843Zm12.473.729a.875.875 0 0 0 0-1.456l-2.797-1.865a.875.875 0 0 0-1.36.728v3.73a.875.875 0 0 0 1.36.728l2.797-1.865Z" fill="#323232"></path></svg>