<svg xmlns:xlink="http://www.w3.org/1999/xlink" xmlns="http://www.w3.org/2000/svg" width="40" height="40" fill="none" viewBox="0 0 40 40"><path fill="#C2C4C8" fill-rule="evenodd" d="M8.654 11.276C8 12.56 8 14.24 8 17.6v4.8c0 3.36 0 5.04.654 6.324a6 6 0 0 0 2.622 2.622C12.56 32 14.24 32 17.6 32h4.8c3.36 0 5.04 0 6.324-.654a6 6 0 0 0 2.622-2.622C32 27.44 32 25.76 32 22.4v-4.8c0-3.36 0-5.04-.654-6.324a6 6 0 0 0-2.622-2.622C27.44 8 25.76 8 22.4 8h-4.8c-3.36 0-5.04 0-6.324.654a6 6 0 0 0-2.622 2.622m5.534 4.224c0-.725.587-1.312 1.312-1.312h9a1.312 1.312 0 1 1 0 2.624h-3.187V24.5a1.312 1.312 0 1 1-2.625 0v-7.687H15.5a1.31 1.31 0 0 1-1.312-1.313" class="textNormal_svg__main" clip-rule="evenodd"></path><path fill="url(&quot;#textNormal_svg__a&quot;)" fill-opacity="0.2" fill-rule="evenodd" d="M8.654 11.276C8 12.56 8 14.24 8 17.6v4.8c0 3.36 0 5.04.654 6.324a6 6 0 0 0 2.622 2.622C12.56 32 14.24 32 17.6 32h4.8c3.36 0 5.04 0 6.324-.654a6 6 0 0 0 2.622-2.622C32 27.44 32 25.76 32 22.4v-4.8c0-3.36 0-5.04-.654-6.324a6 6 0 0 0-2.622-2.622C27.44 8 25.76 8 22.4 8h-4.8c-3.36 0-5.04 0-6.324.654a6 6 0 0 0-2.622 2.622m5.534 4.224c0-.725.587-1.312 1.312-1.312h9a1.312 1.312 0 1 1 0 2.624h-3.187V24.5a1.312 1.312 0 1 1-2.625 0v-7.687H15.5a1.31 1.31 0 0 1-1.312-1.313" clip-rule="evenodd"></path><path fill="#C2C4C8" d="M15.5 14.188a1.312 1.312 0 1 0 0 2.624h3.188V24.5a1.312 1.312 0 1 0 2.625 0v-7.687H24.5a1.312 1.312 0 1 0 0-2.625z"></path><path fill="url(&quot;#textNormal_svg__b&quot;)" fill-opacity="0.2" d="M15.5 14.188a1.312 1.312 0 1 0 0 2.624h3.188V24.5a1.312 1.312 0 1 0 2.625 0v-7.687H24.5a1.312 1.312 0 1 0 0-2.625z"></path><path fill="#FFFFFF" d="M15.5 14.188a1.312 1.312 0 1 0 0 2.624h3.188V24.5a1.312 1.312 0 1 0 2.625 0v-7.687H24.5a1.312 1.312 0 1 0 0-2.625z"></path><defs><linearGradient id="textNormal_svg__a" x1="20" x2="20" y1="8" y2="32" gradientUnits="userSpaceOnUse"><stop stop-color="#fff"></stop><stop offset="1" stop-color="#fff" stop-opacity="0"></stop></linearGradient><linearGradient id="textNormal_svg__b" x1="20" x2="20" y1="8" y2="32" gradientUnits="userSpaceOnUse"><stop stop-color="#fff"></stop><stop offset="1" stop-color="#fff" stop-opacity="0"></stop></linearGradient><linearGradient id="textNormal_svg__a" x1="20" x2="20" y1="8" y2="32" gradientUnits="userSpaceOnUse"><stop stop-color="#fff"></stop><stop offset="1" stop-color="#fff" stop-opacity="0"></stop></linearGradient><linearGradient id="textNormal_svg__b" x1="20" x2="20" y1="8" y2="32" gradientUnits="userSpaceOnUse"><stop stop-color="#fff"></stop><stop offset="1" stop-color="#fff" stop-opacity="0"></stop></linearGradient></defs></svg>